<svg width="513" height="514" xmlns="http://www.w3.org/2000/svg" version="1.1" enable-background="new 0 0 513 514" xml:space="preserve">
 <g>
  <title>Layer 1</title>
  <path fill="#2B594F" d="m212.28644,297.75131c-22.01756,10.43439 -44.00041,11.14319 -65.68482,-0.75091c-34.2707,-18.79776 -44.59162,-66.82884 -20.79817,-97.80347c4.78945,-6.23494 11.336,-11.10249 16.86536,-16.80142c1.11592,-1.15015 2.19156,-3.49523 1.77282,-4.80609c-6.87376,-21.51816 8.22815,-55.68718 40.47458,-64.52231c4.55866,-1.24902 7.44004,-3.42923 9.95208,-7.32438c18.72959,-29.04187 49.63433,-40.17735 81.55352,-28.9351c20.74857,7.30785 34.61741,21.94808 41.58448,42.84472c1.14605,3.43753 2.64318,4.77468 6.34381,5.43485c13.44864,2.39914 22.66916,10.84188 28.80948,22.5839c10.05316,19.22451 11.74121,39.61612 7.76617,60.7445c-0.46442,2.46843 0.07883,5.55847 1.21597,7.82894c10.66556,21.29548 13.38572,42.68735 -0.16116,63.64453c-16.51507,25.54901 -50.09406,33.77994 -77.3681,19.98059c-4.42081,-2.23669 -9.75077,-2.67648 -14.92179,-4.23993c5.04804,-5.00308 10.33338,-9.74045 15.67554,-14.41293c3.28632,-2.87436 6.38471,-6.38751 11.50324,-3.28351c0.96127,0.58294 2.46374,0.2735 5.24731,0.50091c-1.89264,-3.25735 -3.18863,-5.48788 -4.82034,-8.29623c3.66134,-3.35074 7.737,-6.92618 11.58444,-10.73221c0.76791,-0.75961 0.66449,-2.40008 0.96283,-3.63437c-1.0965,0.31324 -2.47809,0.30527 -3.24689,0.98767c-12.41452,11.01947 -24.72836,22.15232 -37.13653,33.17902c-1.42066,1.26248 -3.26984,2.04278 -5.18317,2.80167c-5.86206,-6.29636 -11.46126,-12.34769 -17.12427,-18.50733c-0.06383,-0.10827 -0.23097,-0.29602 -0.21783,-0.75879c-0.27347,-8.26806 -0.80409,-16.07663 -0.70029,-23.87675c0.03178,-2.3877 1.31357,-5.15724 2.87477,-7.04886c4.12459,-4.9975 8.79347,-9.54202 13.06313,-14.42645c0.98645,-1.12848 1.24246,-2.89544 1.83459,-4.36858c-1.36191,0.61356 -2.9469,0.9622 -4.04599,1.88782c-4.13708,3.4841 -8.11593,7.15611 -12.80923,11.34213c-0.11243,-2.49925 -0.2453,-4.09042 -0.24599,-5.68165c-0.00604,-13.99764 0.01187,-27.99526 0.02115,-41.9929c0.00078,-1.16639 0.43568,-2.632 -0.1058,-3.43841c-1.21776,-1.81352 -2.92234,-3.30016 -4.42876,-4.91982c-1.47829,1.66247 -3.20955,3.17364 -4.33132,5.04932c-0.58741,0.98221 -0.10444,2.60423 -0.10592,3.9373c-0.03075,27.66165 -0.06165,55.32329 -0.30068,83.01848c-0.20817,0.03351 -0.61532,0.14331 -0.95485,0.19205c-6.07914,6.80862 -11.81875,13.56848 -17.85926,20.12143c-2.6153,-3.42774 -4.93436,-6.64523 -7.24311,-9.87006c-4.41987,-6.17358 -8.77351,-12.39667 -13.32745,-18.46963c-0.56415,-0.75229 -2.18048,-0.71564 -3.30925,-1.04456c-0.05307,1.20483 -0.51308,2.58923 -0.07668,3.57803c0.98601,2.2342 2.41478,4.27298 3.51416,6.13801c-1.72306,1.09423 -3.14198,1.99529 -4.56089,2.89639c0.40664,0.55847 0.81329,1.11694 1.21995,1.67538c9.97659,2.89334 12.44437,12.23035 17.22916,19.57901z" id="svg_2"/>
  <path fill="#F4A605" d="m341.495,384.22006c5.11257,5.41742 10.53158,10.58121 15.27084,16.30759c8.59122,10.38052 17.5574,20.58865 24.87771,31.83795c5.52457,8.48975 8.72724,18.49048 13.69684,29.43396c6.42932,0 14.79798,-0.74319 22.97535,0.19c10.00112,1.1413 19.89224,3.47266 29.71865,5.76978c2.6399,0.61712 4.87183,2.97952 7.29105,4.54071c-0.10309,0.48474 -0.20618,0.96945 -0.30927,1.45416c-1.29654,0.34656 -2.59207,0.99173 -3.88971,0.99603c-33.15301,0.10974 -66.30621,0.15467 -99.45944,0.19083c-0.65133,0.0007 -1.30298,-0.23862 -1.9689,-0.67947c1.42474,-2.29703 2.86392,-4.28052 4.61499,-6.39649c1.8909,-0.8287 3.46991,-1.52487 5.81015,-2.5567c-10.44028,-9.05826 -10.12567,-21.24637 -11.40103,-32.86087c-0.90955,3.22208 -1.80939,6.27051 -2.08795,9.37466c-0.69196,7.71079 -1.10044,15.44703 -1.87934,23.391c-0.73922,1.69995 -1.22183,3.18194 -1.95349,4.95715c-0.43185,1.80771 -0.61465,3.32217 -0.79745,4.83667c-1.74945,0.18674 -3.4989,0.37344 -5.80875,0.15961c-3.50174,-0.62787 -6.44302,-0.85517 -9.56897,-1.34357c-0.51813,-4.3505 2.36258,-5.10513 5.65601,-5.50446c0.65225,-1.67764 1.07513,-3.52038 1.35318,-5.79431c-0.86209,-4.37375 -1.57935,-8.31625 -1.89963,-12.36798c0.67062,-2.15271 0.94421,-4.19626 1.21375,-6.66351c-0.60398,-5.00183 -0.94199,-9.63468 -1.88437,-14.14115c-0.79377,-3.79583 -1.3241,-8.28128 -3.66996,-10.99014c-5.4209,-6.25955 -9.81671,-12.78165 -11.05017,-21.06146c2.81012,-0.34717 5.18189,-0.59427 7.90479,-0.80371c7.11462,-2.51377 13.88092,-5.06131 17.24512,-12.27628z" id="svg_3"/>
  <path fill="#6A937D" d="m189.26349,383.35214c12.08615,-0.41455 19.85887,9.68219 21.46873,20.30268c1.78405,11.76959 2.06189,23.76748 2.57299,35.9999c-4.83756,-2.18454 -9.42229,-1.94049 -14.01438,-0.86743c1.04558,-3.32934 2.0253,-6.29687 3.09117,-9.52536c-1.35954,-0.16391 -2.47354,-0.39779 -3.59109,-0.4162c-5.72594,-0.09436 -12.33571,-3.46374 -16.0186,4.23404c-0.12071,0.25229 -0.5488,0.35276 -0.82587,0.53568c-5.54158,3.65924 -11.06441,7.34726 -16.63098,10.96805c-2.37007,1.54162 -4.83112,2.94336 -7.25081,4.40869c0.07452,-2.41071 0.82382,-3.99955 1.73612,-5.48847c2.78431,-4.54409 2.32585,-9.59164 0.4318,-13.8515c-0.6708,-1.50867 -5.62634,-1.13464 -8.63331,-1.56744c-0.81532,-0.11737 -1.65828,-0.04267 -2.48854,-0.05612c2.79348,-10.50342 5.2239,-21.12262 8.5215,-31.46531c1.87073,-5.86743 7.77713,-7.77105 13.36946,-9.63092c1.75757,1.23496 3.14101,2.9838 4.6445,3.09394c5.69406,0.41714 10.40336,-1.74588 13.61731,-6.67423z" id="svg_4"/>
  <path fill="#71423E" d="m237.03934,273.09857c0,0 0.40715,-0.1098 1.02453,-0.06067c3.36426,0.33225 6.11113,0.61536 8.85799,0.8985c0,0 0.16714,0.18775 0.21973,0.73932c0.05258,11.3187 0.05258,22.08578 0.05258,33.92569c6.04493,-4.97748 10.87105,-8.95135 15.72499,-12.42551c0.13031,2.18323 0.23279,3.86673 0.33523,5.55021c-4.14791,4.06747 -8.1307,8.32489 -12.50723,12.12939c-2.52563,2.19556 -3.33142,4.5235 -3.32676,7.75131c0.0727,50.45569 0.04443,100.91153 0.02329,151.36734c-0.00013,0.3049 -0.2273,0.60971 -0.52197,1.35123c-3.23781,0 -6.65614,0 -10.7539,0c-0.07697,-1.45603 -0.25142,-3.19458 -0.24872,-4.93289c0.06704,-42.96766 -0.08678,-85.9383 0.46286,-128.89997c0.0955,-7.46545 -2.27851,-13.057 -6.29331,-19.20764c1.85157,-1.26831 3.53647,-1.85092 5.59848,-2.53207c0.69187,-1.13361 1.27564,-2.16733 1.28081,-3.20395c0.07059,-14.14987 0.06113,-28.30011 0.0714,-42.45029z" id="svg_5"/>
  <path fill="#2F5D52" d="m199.22499,439.14914c4.65793,-1.43491 9.24266,-1.67896 14.00908,0.9335c5.66945,8.97553 7.08847,18.64844 5.94775,28.76212c-0.4776,4.23462 -2.86134,6.21866 -7.42594,6.15799c-14.58665,-0.19394 -29.17737,-0.07849 -44.24874,-0.48725c-0.14186,-12.51382 -0.14186,-12.51382 -8.07286,-15.23364c2.07732,-1.25693 3.60139,-2.40073 5.29601,-3.16782c9.63905,-4.36334 19.35261,-8.56356 28.95742,-12.99984c2.02436,-0.93503 3.70063,-2.62366 5.53728,-3.96506z" id="svg_6"/>
  <path fill="#F7C4A8" d="m199.29083,438.78729c-1.90249,1.70325 -3.57876,3.39188 -5.60312,4.32691c-9.60481,4.43628 -19.31837,8.6365 -28.95742,12.99984c-1.69462,0.76709 -3.21869,1.91089 -5.29601,3.16782c7.931,2.71982 7.931,2.71982 7.61226,15.2973c-0.55948,0.75287 -1.14198,1.28751 -1.72139,1.28415c-8.62241,-0.04999 -17.24442,-0.17117 -26.06601,-0.87491c0.11856,-2.0618 0.43663,-3.52423 0.80577,-5.38025c-0.11064,-1.43151 -0.27237,-2.46951 -0.3829,-3.9754c0.17422,-4.8475 0.29725,-9.22711 0.71444,-13.79404c0.93065,-2.59515 1.56713,-5.00302 2.20362,-7.41088c2.14206,-5.21521 4.28412,-10.43046 6.46841,-16.02243c0.8725,-0.36329 1.71546,-0.43799 2.53078,-0.32062c3.00697,0.4328 7.96251,0.05877 8.63331,1.56744c1.89405,4.25986 2.35251,9.30741 -0.4318,13.8515c-0.9123,1.48892 -1.6616,3.07776 -1.73612,5.48847c2.41969,-1.46533 4.88074,-2.86707 7.25081,-4.40869c5.56657,-3.62079 11.0894,-7.30881 16.63098,-10.96805c0.27707,-0.18292 0.70516,-0.28339 0.82587,-0.53568c3.68289,-7.69778 10.29266,-4.3284 16.0186,-4.23404c1.11755,0.01841 2.23155,0.25229 3.59109,0.4162c-1.06587,3.22849 -2.04559,6.19602 -3.09117,9.52536z" id="svg_7"/>
  <path fill="#2F5F53" d="m140.10231,452.026c-0.12305,4.37964 -0.24608,8.75925 -0.58952,13.86621c0.02009,1.85471 0.26057,2.98212 0.50103,4.1095c-0.31805,1.46246 -0.63612,2.92489 -1.08523,4.75903c-0.55678,0.36618 -0.98251,0.36063 -1.91251,0.37781c-0.50424,0.02274 -0.90516,0.1282 -0.90516,0.1282c-1.12354,-0.08599 -2.24709,-0.17196 -4.18782,-0.27557c-6.80264,-1.04272 -12.78809,-2.06781 -18.77353,-3.09293c-5.46451,-4.20294 -11.32552,-7.99313 -16.26702,-12.74044c-3.89354,-3.74054 -5.11523,-8.98926 -2.45836,-14.25904c2.75995,-5.47427 7.6905,-8.33203 13.49117,-7.57837c9.55723,1.24173 18.98112,3.50968 28.71686,5.88816c-1.04039,2.89441 -2.33644,5.24569 -4.0954,8.43679c2.91852,0.14686 5.242,0.26374 7.56549,0.38065m-9.3367,-3.52386c-0.2925,-0.29517 -0.58498,-0.59037 -0.87747,-0.88553c-0.20212,0.36319 -0.40422,0.72638 -0.60634,1.08957c0.45499,0.10427 0.90996,0.20858 1.48381,-0.20404z" id="svg_8"/>
  <path fill="#F0A20A" d="m307.76605,393.6571c-0.77029,-3.42868 -1.54059,-6.85736 -2.37726,-10.58163c-5.75433,0.66205 -12.67144,4.16272 -15.74301,-4.86484c1.80622,-2.38174 3.33322,-4.41836 4.86026,-6.45498c-1.83984,-1.00443 -3.67969,-2.00885 -5.51953,-3.01328c1.49469,-0.71161 2.9545,-1.51239 4.49252,-2.11307c2.09964,-0.82 3.62757,-1.42334 3.22913,-4.52307c-0.49216,-3.82913 4.40494,-9.45288 9.05951,-9.83462c6.49887,-0.53305 13.09393,0.10727 19.58301,0.54614c-1.14661,1.78293 -3.02378,3.18942 -3.1734,4.76041c-0.67179,7.05432 -1.06815,14.15536 -1.07016,21.23968c-0.00055,1.95267 1.70358,3.90579 2.62555,5.8587c1.94464,-0.93499 4.08627,-1.60394 5.78967,-2.86483c2.84649,-2.10706 5.41296,-4.59244 8.09729,-6.91855c0.78842,2.034 1.57681,4.06799 2.18744,6.68613c-5.06339,4.16604 -9.94901,7.74798 -15.23365,11.38552c-1.47872,0.36405 -2.55764,0.93219 -3.63827,0.93546c-4.38944,0.01318 -8.77936,-0.14697 -13.1691,-0.24317z" id="svg_9"/>
  <path fill="#4A2E2F" d="m158.17244,362.20547c-7.26962,-7.72375 -2.80361,-16.28772 6.57208,-18.75c7.23908,-1.90115 14.20705,-0.98348 20.64726,2.87806c5.86339,3.51565 8.27125,10.79394 5.97239,18.47647c-1.1832,3.95407 -2.93456,7.73816 -4.81049,11.94848c-3.82208,-1.69741 -4.86668,-4.31924 -3.57095,-8.38534c0.59848,-1.87811 0.04204,-5.62705 -1.19765,-6.29804c-3.32852,-1.80166 -4.33232,1.44535 -5.33578,3.93741c-0.1653,0.41053 -0.61254,0.70755 -1.78209,1.99732c0.01919,-11.21933 -9.59696,-9.45038 -15.17641,-13.24729c-0.48049,2.71262 -0.89943,5.07779 -1.31836,7.44293z" id="svg_10"/>
  <path fill="#F7C5AA" d="m158.13354,362.61148c0.45783,-2.77115 0.87677,-5.13632 1.35726,-7.84894c5.57945,3.79691 15.1956,2.02796 15.17641,13.24729c1.16955,-1.28977 1.61679,-1.58679 1.78209,-1.99732c1.00346,-2.49206 2.00726,-5.73907 5.33578,-3.93741c1.23969,0.67099 1.79613,4.41993 1.19765,6.29804c-1.29573,4.0661 -0.25113,6.68793 3.54091,8.76523c1.02317,1.86346 1.6951,3.69644 2.55343,5.87158c-3.02753,5.27054 -7.73683,7.43356 -13.43089,7.01642c-1.50349,-0.11014 -2.88693,-1.85898 -4.29718,-3.30347c1.35756,-3.95593 0.18214,-5.29953 -3.39626,-4.19592c-3.2617,1.00589 -5.22805,-0.48172 -6.24716,-3.26252c-1.91978,-5.23846 -5.54185,-10.1416 -3.57204,-16.65298z" id="svg_11"/>
  <path fill="#F3A60B" d="m321.83142,474.92377c-5.43548,0 -10.871,0 -16.59393,0c-0.08856,-3.88895 1.61181,-6.84143 5.28818,-7.09986c4.32354,-0.30383 4.77261,-2.56573 4.64941,-5.8912c-0.3634,-9.80881 -0.63651,-19.62128 -1.06091,-29.42725c-0.05436,-1.25543 -0.49183,-2.72583 -1.26432,-3.68298c-8.2167,-10.18069 -6.3569,-21.75797 -4.48498,-33.56644c0.87256,0.27774 1.43869,0.81064 1.67087,1.65781c-0.41782,4.54275 -0.93064,8.81558 -0.49884,12.99069c0.98785,9.55167 6.5906,17.12277 11.54715,25.30536c1.70751,4.32956 3.38391,8.29495 5.08883,12.68658c-0.07446,2.57303 0.05997,4.76337 -0.32422,6.85862c-1.23611,6.74176 -2.66357,13.44845 -4.01724,20.16867z" id="svg_12"/>
  <path fill="#754340" d="m235.31003,318.85132c-1.68491,0.58264 -3.36981,1.16525 -5.25528,2.08978c-4.79689,-6.18313 -9.3741,-12.72183 -14.00548,-19.22186c-0.94215,-1.3223 -2.08833,-2.4993 -3.45164,-3.85559c-5.09598,-7.461 -7.56376,-16.79801 -17.54035,-19.69135c-0.40666,-0.55844 -0.81331,-1.11691 -1.21995,-1.67538c1.41891,-0.9011 2.83783,-1.80216 4.56089,-2.89639c-1.09938,-1.86503 -2.52815,-3.90381 -3.51416,-6.13801c-0.4364,-0.9888 0.02361,-2.3732 0.07668,-3.57803c1.12877,0.32892 2.7451,0.29227 3.30925,1.04456c4.55394,6.07296 8.90758,12.29605 13.32745,18.46963c2.30875,3.22483 4.62781,6.44232 7.27848,10.17786c1.12455,1.75348 1.90135,2.99972 2.70306,4.22977c4.57373,7.01715 9.15341,14.03042 13.73105,21.04501z" id="svg_13"/>
  <path fill="#D58707" d="m337.80075,374.59033c-2.86545,2.62894 -5.43192,5.11432 -8.27841,7.22138c-1.7034,1.26089 -3.84503,1.92984 -5.78967,2.86483c-0.92197,-1.95291 -2.6261,-3.90603 -2.62555,-5.8587c0.00201,-7.08432 0.39837,-14.18536 1.07016,-21.23968c0.14962,-1.57099 2.02679,-2.97748 3.47885,-4.53034c5.38937,3.86237 10.53122,7.65582 15.30966,11.86212c0.82062,0.72235 0.4852,3.33588 -0.02368,4.83582c-0.56238,1.65786 -1.93851,3.0397 -3.14136,4.84457z" id="svg_14"/>
  <path fill="#74423E" d="m263.56827,301.56879c-0.41632,-1.52616 -0.5188,-3.20966 -0.49274,-5.67133c0.57382,-1.48975 1.01914,-2.20123 1.46445,-2.91272c1.65045,-1.00388 3.49963,-1.78418 4.92029,-3.04666c12.40817,-11.0267 24.72201,-22.15955 37.13653,-33.17902c0.7688,-0.6824 2.15039,-0.67443 3.24689,-0.98767c-0.29834,1.23429 -0.19492,2.87476 -0.96283,3.63437c-3.84744,3.80603 -7.9231,7.38147 -11.58444,10.73221c1.63171,2.80835 2.9277,5.03888 4.82034,8.29623c-2.78357,-0.22741 -4.28604,0.08203 -5.24731,-0.50091c-5.11853,-3.104 -8.21692,0.40915 -11.50324,3.28351c-5.34216,4.67248 -10.6275,9.40985 -16.09979,14.40167c-1.90341,2.11886 -3.64386,3.95593 -5.69815,5.95032z" id="svg_15"/>
  <path fill="#824425" d="m324.97241,392.90924c4.88565,-3.58197 9.77127,-7.16391 14.92154,-10.9826c0.64804,0.42819 1.03146,1.09317 1.50797,2.02578c-3.27112,7.48261 -10.03742,10.03015 -17.06208,12.24878c0.03669,-1.31921 0.33463,-2.3056 0.63257,-3.29196z" id="svg_17"/>
  <path fill="#BA7E0E" d="m343.05048,469.87714c0.48263,-1.482 0.96524,-2.96399 2.05868,-4.50684c3.37122,0.83521 6.13165,1.73126 8.89206,2.62732c-1.43918,1.98346 -2.87836,3.96695 -4.64468,6.03278c-1.4411,0.0296 -2.55506,-0.02317 -4.07999,-0.56269c-1.01599,-1.52133 -1.62103,-2.55597 -2.22607,-3.59057z" id="svg_18"/>
  <path fill="#3A6557" d="m140.39645,451.83871c-2.61763,0.07038 -4.94111,-0.0465 -7.85963,-0.19336c1.75896,-3.1911 3.05501,-5.54238 4.4048,-8.23669c1.68413,0.05402 3.3145,0.45105 5.30167,0.93363c-0.27971,2.4934 -0.91619,4.90127 -1.84684,7.49642z" id="svg_19"/>
  <path fill="#59372E" d="m288.66379,368.80774c2.16256,0.93906 4.00241,1.94348 5.84225,2.94791c-1.52704,2.03662 -3.05404,4.07324 -4.93143,6.11996c-1.22412,-1.52124 -2.60827,-2.98712 -2.81555,-4.60385c-0.17642,-1.37601 1.00263,-2.92578 1.90473,-4.46402z" id="svg_20"/>
  <path fill="#59372E" d="m324.57342,392.96478c0.10105,0.93082 -0.19689,1.91721 -0.58477,3.19873c-2.46167,0.54227 -4.83344,0.78937 -8.03586,1.05814c-2.41483,-0.19293 -3.99896,-0.4075 -5.5831,-0.6221c-0.56613,-0.53287 -1.13226,-1.06577 -1.92999,-1.78516c-0.32523,-0.40762 -0.42295,-0.62698 -0.59915,-1.00091c4.31524,-0.06018 8.70516,0.09997 13.0946,0.08679c1.08063,-0.00327 2.15955,-0.57141 3.63827,-0.93549z" id="svg_21"/>
  <path fill="#EEAC1B" d="m327.17477,475.1394c-0.41406,-0.07656 -0.41867,-0.56753 -0.39126,-0.8114c2.96872,-0.01654 5.91,0.21076 9.04883,0.73386c-2.61615,0.24857 -5.42984,0.20135 -8.65757,0.07754z" id="svg_23"/>
  <path fill="#EEAC1B" d="m342.80145,470.17035c0.85407,0.74139 1.45911,1.77603 2.10617,3.10235c-0.72702,0.71582 -1.49606,1.13993 -2.58438,1.64918c-0.13644,-1.42936 0.04636,-2.94382 0.47821,-4.75153z" id="svg_24"/>
  <path fill="#F7C4A8" d="m136.19211,475.35596c-0.08119,-0.08921 0.31973,-0.19467 0.51483,-0.12659c0.19508,0.06809 -0.09558,0.2684 -0.09558,0.2684c0,0 -0.33805,-0.05258 -0.41925,-0.14181z" id="svg_25"/>
  <path fill="#773F3C" d="m246.935,273.47363c-2.76,0.17963 -5.50687,-0.10348 -8.66295,-0.46924c-0.37836,-27.74432 -0.34746,-55.40596 -0.31671,-83.06761c0.00148,-1.33307 -0.48149,-2.95509 0.10592,-3.9373c1.12177,-1.87568 2.85303,-3.38685 4.33132,-5.04932c1.50642,1.61966 3.211,3.1063 4.42876,4.91982c0.54148,0.80641 0.10658,2.27202 0.1058,3.43841c-0.00928,13.99764 -0.02719,27.99526 -0.02115,41.9929c0.00069,1.59123 0.13356,3.1824 0.24599,5.68165c4.6933,-4.18602 8.67215,-7.85803 12.80923,-11.34213c1.09909,-0.92562 2.68408,-1.27426 4.04599,-1.88782c-0.59213,1.47314 -0.84814,3.2401 -1.83459,4.36858c-4.26966,4.88443 -8.93854,9.42895 -13.06313,14.42645c-1.5612,1.89162 -2.84299,4.66116 -2.87477,7.04886c-0.1038,7.80012 0.42682,15.60869 0.70029,23.87675z" id="svg_26"/>
  <path fill="#FBCD53" d="m310.03574,396.91388c1.91809,-0.09973 3.50222,0.11484 5.47866,0.40781c2.06415,8.25817 6.45996,14.78027 11.88086,21.03982c2.34586,2.70886 2.87619,7.19431 3.66996,10.99014c0.94238,4.50647 1.28039,9.13932 1.5968,13.98838c-4.05872,-2.65079 -7.83389,-5.57251 -11.60907,-8.49427c-4.92545,-7.81845 -10.5282,-15.38955 -11.51605,-24.94122c-0.4318,-4.17511 0.08102,-8.44794 0.49884,-12.99066z" id="svg_29"/>
  <path fill="#D18406" d="m354.31311,467.86511c-3.0723,-0.76355 -5.83273,-1.6596 -8.94736,-2.71277c0.16809,-7.88311 0.57657,-15.61935 1.26853,-23.33014c0.27856,-3.10415 1.1784,-6.15258 2.08795,-9.37466c1.27536,11.6145 0.96075,23.80261 11.40103,32.86087c-2.34024,1.03183 -3.91925,1.728 -5.81015,2.5567z" id="svg_30"/>
  <path fill="#F0A20A" d="m321.08405,435.2099c3.74408,2.55762 7.51925,5.47934 11.58203,8.55383c0.01397,2.19632 -0.25962,4.23987 -0.93024,6.39258c-1.9234,-0.83752 -3.4498,-1.7843 -5.28384,-2.70856c-1.98404,-3.9429 -3.66044,-7.90829 -5.36795,-12.23785z" id="svg_31"/>
  <path fill="#EEAC1B" d="m332.28229,468.3186c0.25696,-1.6492 0.74325,-3.13333 1.36377,-4.99029c-0.28864,1.46991 -0.71152,3.31265 -1.36377,4.99029z" id="svg_32"/>
  <path fill="#3A6557" d="m140.06491,469.60815c-0.29155,-0.73382 -0.53203,-1.86123 -0.6033,-3.24804c0.33093,0.77853 0.49266,1.81653 0.6033,3.24804z" id="svg_33"/>
  <path fill="#3A6557" d="m130.70618,448.76062c-0.51442,0.15414 -0.96939,0.04983 -1.42438,-0.05444c0.20212,-0.36319 0.40422,-0.72638 0.60634,-1.08957c0.29249,0.29516 0.58497,0.59036 0.81804,1.14401z" id="svg_34"/>
 </g>

</svg>