<svg
        width="492"
        height="503"
        viewBox="0 0 492 503"
        xmlns="http://www.w3.org/2000/svg"
        xml:space="preserve"
        version="1.1"
>
 <g>
  <title>Layer 1</title>
     <path id="svg_2"
           d="m124.13775,259.41995c-1.61872,-0.76428 -3.18382,-1.68207 -4.86445,-2.26914c-17.13317,-5.98489 -27.58563,-23.30102 -24.98984,-41.49388c2.44149,-17.11142 16.76809,-29.36441 35.27713,-30.17939c1.31758,-0.058 2.63286,-0.16808 4.00258,-0.25742c-10.45929,-28.33408 13.75073,-54.11821 42.79715,-44.282c3.35312,-4.98853 6.16684,-10.32504 10.03885,-14.73162c15.01772,-17.09108 42.29907,-18.52953 59.50207,-3.61215c1.38801,1.20359 3.75316,2.30806 5.41215,2.01779c26.41583,-4.62202 47.93835,10.62728 52.00585,37.06665c0.2009,1.30578 0.46213,2.60228 0.52665,2.96227c6.12841,6.54699 12.23193,1.79907 18.15365,1.24694c7.35813,-0.68608 14.25336,0.09525 20.70502,3.91571c9.07288,5.37263 12.89368,13.45932 12.80038,23.78584c-0.01425,1.57309 0.4881,3.69977 1.56421,4.65021c13.08905,11.56018 17.51444,25.85962 14.08719,42.81224c-0.22656,1.12073 -0.1221,2.30836 -0.50787,4.00261c-1.37619,3.03966 -1.97058,5.87485 -3.54367,7.97796c-3.96048,5.29485 -7.62903,11.204 -12.73398,15.16761c-12.11609,9.40725 -25.72632,14.33336 -41.39694,9.33711c-1.31565,-0.41945 -3.47989,0.23054 -4.63571,1.15312c-9.49576,7.57941 -22.45639,7.81398 -32.18366,0.37113c-7.89978,-6.04454 -14.98978,-6.20134 -22.8605,-0.54828c-0.93915,0.67454 -1.98854,1.20189 -3.01012,1.75444c-11.2376,6.07831 -23.28311,5.77417 -35.48628,4.65208c-2.28293,-0.20991 -4.65448,0.54421 -7.30637,0.69608c-1.56299,0.85966 -2.80473,1.87666 -4.44443,2.86682c-1.20254,0.13238 -2.16107,0.06294 -2.78854,0.48529c-8.5919,5.78334 -18.15915,6.36836 -28.05215,5.476c-20.6655,-1.86408 -34.12426,-13.3507 -41.83231,-31.94527c-1.53156,-3.69463 -3.12745,-4.12305 -6.23606,-3.07875z"
           fill="#2D5C4F"/>
     <path id="svg_3"
           d="m207.81247,285.77322c2.33066,-0.30923 4.70221,-1.06335 6.98514,-0.85344c12.20317,1.12209 24.24868,1.42623 35.48628,-4.65208c1.02158,-0.55255 2.07097,-1.0799 3.01012,-1.75444c7.87072,-5.65306 14.96072,-5.49626 22.8605,0.54828c9.72727,7.44285 22.6879,7.20828 32.18366,-0.37113c1.15582,-0.92258 3.32006,-1.57257 4.63571,-1.15312c15.67062,4.99625 29.28085,0.07014 41.39694,-9.33711c5.10495,-3.96361 8.7735,-9.87276 12.73398,-15.16761c1.57309,-2.10311 2.16748,-4.9383 3.56466,-7.53979c10.78232,21.62355 -1.49264,48.87288 -25.46212,56.74734c-15.23328,5.00446 -29.85074,3.11957 -43.86386,-4.64025c-1.93726,-1.07276 -4.62613,-1.47365 -6.85529,-1.21653c-10.28659,1.18659 -19.49493,-1.24846 -27.13944,-7.04689c-6.432,2.50818 -12.40519,4.83745 -19.17588,7.17366c-2.99277,0.37325 -5.18804,0.73957 -7.82219,1.07328c-5.73638,-0.72542 -11.03385,-1.41822 -16.5548,-2.38639c-3.21829,-1.40281 -6.21313,-2.53023 -9.44584,-3.86139c-2.33777,-1.98996 -4.43767,-3.77616 -6.53757,-5.56239z"
           fill="#1A493B"/>
     <path stroke="null" id="svg_4"
           d="m214.58792,291.53935c2.99483,0.88613 5.98967,1.77227 9.1765,3.21307c-0.24486,6.42295 -0.68172,12.29123 -1.17616,18.93305c5.82948,-4.50003 10.90976,-8.15483 15.5289,-12.13985c1.50827,-1.30121 1.81573,-3.46229 2.67239,-5.23011c2.19528,-0.28793 4.39055,-0.57585 7.00029,-0.82434c-1.40883,3.17831 -2.53522,6.7571 -5.19991,9.36487c-5.61515,5.49515 -12.12313,10.42149 -18.05766,15.72442c-1.27884,1.14274 -2.33711,2.87546 -2.39355,4.36228c-1.70902,45.01664 -3.27991,90.03649 -4.8647,135.056c-0.00905,0.25711 0.09025,0.5166 0.36931,1.30817c-0.87818,4.88772 -5.36356,4.33052 -9.16648,4.27511c-3.24206,-0.04725 -6.40237,-0.74356 -5.44337,-4.32913c0.81717,-13.71806 1.55322,-27.43947 2.46763,-41.15352c2.21267,-33.18429 4.50109,-66.36542 6.78391,-99.54679c0.19887,-2.89045 -0.25108,-5.18137 -2.97537,-7.75081c-5.29342,-4.99257 -9.40784,-10.75732 -14.11937,-16.7104c1.18155,-1.37558 2.47175,-2.24296 3.72668,-2.82616c4.44823,4.90467 8.93173,9.52517 13.41522,14.14566c0.42874,-0.14788 0.85749,-0.29576 1.28623,-0.44363c0.32316,-5.14265 0.64633,-10.28527 0.96951,-15.42789z"
           fill="#4D2F34"/>
     <path id="svg_5"
           d="m202.56273,460.08078c-0.48825,4.54263 2.67206,5.42853 5.91412,5.48865c3.80292,0.07049 8.2883,0.77942 9.3844,-5.13602c10.77391,-0.45663 21.56023,-0.53802 33.09337,-0.45611c4.46977,3.86895 9.13217,4.38546 14.06223,4.45916c2.03994,1.42725 3.97256,3.12802 6.08572,3.39398c5.69873,0.71714 11.47845,0.76966 17.21735,1.20127c1.90774,0.14349 3.78909,0.63714 5.60672,1.31106c-4.49997,2.47797 -8.91739,4.62961 -13.35059,6.7482c-2.8591,1.36624 -5.74133,2.68405 -8.61316,4.02356c-3.33905,0.07736 -6.67813,0.1547 -10.64893,-0.19705c-6.82324,-4.33829 -17.75846,-4.00864 -22.36407,0.22601c-2.67619,0.05417 -5.35239,0.10834 -8.76854,-0.21753c-4.55092,-0.23785 -8.36186,-0.09567 -12.17282,0.04651c-5.69427,-0.00061 -11.38854,-0.00122 -17.65605,-0.43527c-10.54007,-3.31061 -20.67233,-5.19546 -31.05918,-4.01224c-3.50843,0.39966 -6.87388,2.05463 -10.30467,3.13593c-2.38218,-0.04968 -4.76436,-0.0994 -7.69574,-0.53699c-1.46144,-0.30722 -2.37368,-0.22653 -3.28593,-0.14581c-1.72144,0.01346 -3.44289,0.02691 -5.66497,-0.4353c-1.85008,-1.16263 -3.179,-2.39048 -4.55252,-2.4426c-5.85319,-0.22202 -11.72032,-0.14417 -17.58047,-0.05377c-1.07081,0.01651 -2.13286,0.60135 -3.19895,0.92386c-5.92339,-0.72974 -11.9012,-1.18195 -17.74302,-2.32764c-2.29336,-0.44977 -4.28228,-2.45188 -6.40984,-3.74704c2.11791,-1.33054 4.09455,-3.43994 6.37866,-3.85419c8.98174,-1.62909 18.02402,-3.40289 27.10979,-3.88846c25.2311,-1.34838 50.49526,-2.07852 76.21709,-3.07217z"
           fill="#2E6555"/>
     <path id="svg_6"
           d="m294.97375,391.05273c9.1941,3.84443 11.31913,11.6464 11.66657,20.55781c0.23776,6.09713 0.74857,12.18362 0.77905,18.84948c-3.69024,1.19892 -7.02218,1.82324 -10.3598,1.99384c-0.00565,-4.33045 -0.00565,-8.20716 -0.00565,-12.0839c-4.29193,5.38981 -4.79043,11.37995 -4.32363,17.62198c-7.96042,-1.67846 -15.5141,-3.28628 -23.03342,-5.04132c-3.59744,-0.83963 -7.12976,-1.95822 -10.75925,-3.35684c-0.35785,-2.35596 -0.6308,-4.30829 -0.9418,-6.25458c-0.71704,-4.48745 -1.45255,-8.97201 -2.18057,-13.45773c0.03021,-0.65988 0.07556,-1.31943 0.08841,-1.97965c0.2323,-11.95065 5.09295,-16.75427 18.67483,-17.60372c2.98349,3.01574 5.1333,6.9963 8.20517,7.92416c3.4122,1.03061 6.70868,-1.7912 7.49951,-6.33188c1.78321,-0.39505 3.23691,-0.61633 4.69058,-0.83765z"
           fill="#FAC975"/>
     <path id="svg_7"
           d="m321.16882,437.07053c1.56363,-4.30289 1.94687,-10.28199 5.01776,-12.44458c3.16901,-2.23172 8.95182,-0.78754 13.5925,-0.88318c4.1521,-0.08564 8.32569,-0.30936 12.44663,0.0386c1.13675,0.09601 3.19412,2.26474 3.01062,3.06586c-2.54862,11.12741 -5.41403,22.18228 -8.44895,33.90918c-1.79562,1.1683 -3.31433,1.98999 -4.89813,2.14456c-8.14987,0.79535 -16.3247,1.33862 -24.46979,2.17499c-1.53497,0.15759 -2.97451,1.24441 -4.86703,1.91702c-3.4505,0.30741 -6.492,0.60028 -9.5896,0.46344c1.38388,-4.9859 -0.54401,-8.74991 -2.53503,-12.59131c2.26657,-0.54382 4.18652,-0.94821 6.11874,-1.2814c13.52066,-2.33139 13.52148,-2.32669 14.62228,-16.51318z"
           fill="#484749"/>
     <path id="svg_8"
           d="m198.95227,293.37361c-1.29024,1.10354 -2.58044,2.20711 -3.91418,3.64642c-6.1941,6.49826 -12.75292,11.88913 -21.72895,13.50659c-17.47197,3.14847 -35.88397,-7.18016 -44.34402,-25.09282c-3.753,-7.94631 -5.43592,-16.32379 -4.93327,-25.5623c3.21451,-1.49585 4.8104,-1.06743 6.34196,2.6272c7.70805,18.59457 21.16681,30.08119 41.83231,31.94527c9.893,0.89236 19.46025,0.30734 28.05215,-5.476c0.62747,-0.42235 1.586,-0.35291 2.66107,-0.16461c-1.14206,1.75509 -2.55456,3.16267 -3.96707,4.57025z"
           fill="#1C493C"/>
     <path id="svg_9"
           d="m303.01889,467.88614c3.04154,-0.29288 6.08304,-0.58575 9.94919,-0.82016c2.94223,0.35025 5.06763,0.93634 7.17608,0.88071c7.43192,-0.19602 14.85932,-0.87989 22.28586,-0.84418c4.44733,0.02136 6.10996,-1.63791 5.55942,-5.87644c14.22431,1.35514 28.47843,2.46793 42.65512,4.21042c4.35459,0.53525 8.49738,2.79361 13.84702,4.64759c-10.73618,7.87381 -21.98694,6.63195 -33.32709,7.69882c-2.53229,0.02127 -4.35462,0.35007 -6.17697,0.67889c-2.37384,0.21155 -4.74768,0.4231 -7.82154,0.32578c-2.52441,-0.06082 -4.34878,0.18722 -6.17318,0.43521c-4.35456,0.25302 -8.70914,0.50601 -13.65305,0.33871c-1.11422,-0.76736 -1.62124,-1.38489 -2.16662,-1.42083c-7.87891,-0.51947 -15.64856,-1.16681 -22.40122,-6.1001c-1.40289,-1.02493 -3.83169,-0.53244 -5.67529,-1.10257c-1.50961,-0.46686 -2.85211,-1.47418 -4.28098,-2.45862c-0.0123,-0.21667 0.20325,-0.59323 0.20325,-0.59323z"
           fill="#2E6555"/>
     <path id="svg_10"
           d="m255.61264,410.17621c0.93063,4.19098 1.66614,8.67554 2.38318,13.16299c0.311,1.94629 0.58395,3.89862 0.97086,6.61966c1.62429,2.612 2.8334,4.94284 4.74847,6.18705c3.56671,2.31726 7.54434,4.0021 11.38849,6.2854c6.58349,4.3576 13.12945,8.37997 19.71356,12.80319c-0.84564,3.58221 -1.72946,6.76352 -2.90302,10.15939c-5.80569,-1.59231 -11.32162,-3.39917 -17.04376,-5.49451c-6.61825,-3.60885 -13.02341,-6.94281 -19.44604,-10.24264c-2.43178,-1.24942 -4.90404,-2.42002 -7.35785,-3.62653c1.08792,-6.83145 1.97151,-13.70392 3.33078,-20.48099c1.02081,-5.08963 2.6528,-10.05667 4.21533,-15.37301z"
           fill="#FAC772"/>
     <path id="svg_11"
           d="m302.82794,468.69608c1.41657,0.76773 2.75907,1.77505 4.26868,2.24191c1.8436,0.57013 4.2724,0.07764 5.67529,1.10257c6.75266,4.93329 14.52231,5.58063 22.40122,6.1001c0.54538,0.03594 1.0524,0.65347 1.70437,1.35971c-21.30157,0.87063 -42.73031,1.38211 -64.5368,1.75387c2.49402,-1.47922 5.37625,-2.79703 8.23535,-4.16327c4.4332,-2.11859 8.85062,-4.27023 13.69128,-6.7546c1.19797,-0.70749 1.97937,-1.06824 3.08564,-1.27958c2.04153,-0.02063 3.75827,-0.19067 5.47497,-0.36071z"
           fill="#336B5A"/>
     <path id="svg_12"
           d="m278.48291,383.38205c-1.36945,-3.68246 -3.38699,-7.26682 -3.96258,-11.06949c-0.96235,-6.35727 2.84472,-11.4816 8.54559,-12.85373c7.35791,-1.77099 15.56942,1.19168 17.73163,6.69757c0.54586,1.38993 -0.09012,3.24402 -0.909,4.99039c-5.82922,1.7529 -13.05725,-2.87775 -15.61166,5.39609c-1.48331,-1.04569 -2.67301,-1.88437 -4.87397,-3.43598c0.21695,4.45951 0.37091,7.62348 0.28751,10.68799c-0.56076,-0.20392 -0.88412,-0.30838 -1.20752,-0.41284z"
           fill="#4E353A"/>
     <path id="svg_13"
           d="m275.0661,442.09607c-3.80661,-1.94806 -7.78424,-3.6329 -11.35095,-5.95016c-1.91507,-1.24421 -3.12418,-3.57505 -4.68085,-5.78068c3.53281,0.62717 7.06513,1.74576 10.66257,2.58539c7.51932,1.75504 15.073,3.36286 23.3793,5.01227c1.84082,-1.69772 2.91495,-3.3765 3.98905,-5.0553c3.33197,-0.62433 6.66391,-1.24865 10.33673,-2.00631c-0.21979,2.31024 -0.78043,4.75384 -1.45072,7.9186c-1.40185,3.18928 -2.69403,5.65738 -4.36627,8.16425c-2.10266,0.19736 -4.33594,1.13028 -5.4635,0.38666c-6.46201,-4.2619 -13.44269,-5.88947 -21.05536,-5.27472z"
           fill="#F7CDB8"/>
     <path id="svg_14"
           d="m279.92777,383.89435c-0.15394,-3.16397 -0.3079,-6.32794 -0.52485,-10.78745c2.20096,1.55161 3.39066,2.39029 4.87397,3.43598c2.55441,-8.27384 9.78244,-3.64319 15.29214,-5.22544c1.04913,6.97184 0.39728,13.5445 -4.54102,19.3801c-1.50793,0.57651 -2.96163,0.79779 -5.0483,1.31021c-6.82672,0.91232 -7.95755,-4.14047 -10.05194,-8.1134z"
           fill="#F7CFC0"/>
     <path id="svg_15"
           d="m301.96503,446.94537c1.29217,-2.46811 2.58435,-4.93621 3.96264,-7.7525c4.82926,-0.90848 9.57242,-1.46881 14.77838,-2.07574c-0.63803,14.13989 -0.63885,14.13519 -14.15951,16.46658c-1.93222,0.33319 -3.85217,0.73758 -6.46039,1.24881c-1.48584,-0.20801 -2.28909,-0.55582 -2.83032,-1.13458c3.4638,-1.23233 7.19784,-1.87079 4.7092,-6.75257z"
           fill="#F2BC68"/>
     <path id="svg_16"
           d="m248.02678,446.4458c2.49356,0.79092 4.96582,1.96152 7.3976,3.21094c6.42263,3.29983 12.82779,6.63379 19.22027,10.5108c-3.23068,1.66712 -6.44174,2.77759 -9.65283,3.88806c-4.90503,0.30716 -9.56743,-0.20935 -13.56119,-4.12884c-1.3284,-4.49768 -2.38601,-8.78153 -3.40385,-13.48096z"
           fill="#DDAA5E"/>
     <path id="svg_17"
           d="m159.44135,479.77387c2.97807,-1.19428 6.34352,-2.84925 9.85195,-3.24891c10.38685,-1.18322 20.51911,0.70163 30.59937,3.92182c-13.25725,0.04199 -26.62793,-0.25901 -40.45132,-0.67291z"
           fill="#336B5A"/>
     <path id="svg_18"
           d="m347.78186,461.07358c0.75812,4.39102 -0.90451,6.05029 -5.35184,6.02893c-7.42654,-0.03571 -14.85394,0.64816 -22.28586,0.84418c-2.10845,0.05563 -4.23385,-0.53046 -6.76715,-0.89524c1.06794,-0.73108 2.50748,-1.8179 4.04245,-1.97549c8.14509,-0.83637 16.31992,-1.37964 24.46979,-2.17499c1.5838,-0.15457 3.10251,-0.97626 4.91281,-1.76901c0.43177,-0.25617 0.60199,-0.23352 0.9798,-0.05838z"
           fill="#2D5C4F"/>
     <path id="svg_19"
           d="m279.69043,383.79489c2.33173,4.07239 3.46256,9.12518 9.95975,8.38663c-0.15784,4.24954 -3.45432,7.07135 -6.86652,6.04074c-3.07187,-0.92786 -5.22168,-4.90842 -7.78305,-7.91208c1.05887,-2.29941 2.12262,-4.22922 3.33435,-6.54358c0.47135,-0.28009 0.79471,-0.17563 1.35547,0.02829z"
           fill="#D9A28B"/>
     <path id="svg_20"
           d="m239.3305,481.29114c4.225,-4.3823 15.16022,-4.71195 21.53803,-0.47232c-6.92824,0.42694 -14.04282,0.52344 -21.53803,0.47232z"
           fill="#336B5A"/>
     <path id="svg_21"
           d="m117.37642,477.13242c0.69972,-0.48465 1.76177,-1.06949 2.83258,-1.086c5.86015,-0.0904 11.72728,-0.16825 17.58047,0.05377c1.37352,0.05212 2.70244,1.27997 4.13533,2.33218c-8.00502,-0.13574 -16.09351,-0.63678 -24.54838,-1.29995z"
           fill="#336B5A"/>
     <path id="svg_22"
           d="m218.37903,481.10645c3.44046,-0.27616 7.2514,-0.41834 11.36563,-0.27845c-3.46288,0.32553 -7.22899,0.36899 -11.36563,0.27845z"
           fill="#336B5A"/>
     <path id="svg_23"
           d="m365.36636,478.55469c1.44351,-0.42172 3.26584,-0.75052 5.35007,-0.84278c-1.48248,0.46964 -3.22684,0.70267 -5.35007,0.84278z"
           fill="#336B5A"/>
     <path id="svg_24"
           d="m351.36334,479.34131c1.45386,-0.36652 3.27823,-0.61456 5.35938,-0.62915c-1.49179,0.40487 -3.24033,0.57629 -5.35938,0.62915z"
           fill="#336B5A"/>
     <path id="svg_25"
           d="m148.28183,479.12872c0.63738,-0.23135 1.54962,-0.31204 2.59312,-0.16058c-0.68525,0.25851 -1.50175,0.28485 -2.59312,0.16058z"
           fill="#336B5A"/>
     <path id="svg_28"
           d="m265.01685,464.43646c3.18606,-1.49133 6.39712,-2.6018 9.83398,-3.98044c5.74173,1.5387 11.25766,3.34556 17.32587,5.08942c1.98529,1.07864 3.41833,2.22028 4.85141,3.36191c-0.78141,0.36078 -1.56281,0.72153 -2.68494,1.08868c-2.23416,-0.32718 -4.11551,-0.82083 -6.02325,-0.96432c-5.7389,-0.43161 -11.51862,-0.48413 -17.21735,-1.20127c-2.11316,-0.26596 -4.04578,-1.96673 -6.08572,-3.39398z"
           fill="#2D5C4F"/>
     <path id="svg_30"
           d="m297.35297,469.05676c-1.75794,-1.29104 -3.19098,-2.43268 -4.88654,-3.72586c0.62131,-3.33288 1.50513,-6.51419 2.58969,-10.28744c0.77973,-0.76618 1.35871,-0.9404 1.93769,-1.1146c0.80325,0.34784 1.6065,0.69565 2.75143,1.07608c2.67358,3.70157 4.60147,7.46558 3.21759,12.45148c0.05606,0.42972 -0.15949,0.80628 -0.14719,1.02295c-1.7044,0.38675 -3.42114,0.55679 -5.46267,0.57739z"
           fill="#F7CFC0"/>
     <path id="svg_31"
           d="m297.25583,453.69794c-0.841,0.40512 -1.41998,0.57934 -2.23789,0.94464c-6.78485,-3.8313 -13.33081,-7.85367 -19.9143,-12.21125c7.57513,-0.95001 14.55581,0.67756 21.01782,4.93946c1.12756,0.74362 3.36084,-0.1893 5.4635,-0.38666c2.86871,4.84302 -0.86533,5.48148 -4.32913,6.71381z"
           fill="#CF914A"/>
 </g>
</svg>