<svg width="867" height="784" xmlns="http://www.w3.org/2000/svg" version="1.1" enable-background="new 0 0 867 784" xml:space="preserve">
 <g>
  <title>Layer 1</title>
  <path fill="#293C42" d="m152.05032,362.83823c-2.49846,-0.79337 -4.9969,-1.58677 -7.77168,-3.00296c0.05209,-2.70478 0.38052,-4.78669 0.83379,-7.18915c0.10536,-0.77478 0.08587,-1.22907 0.39108,-1.75971c2.07028,-1.02182 3.8159,-1.96728 5.88751,-2.81772c18.77922,11.80884 37.23247,23.52265 54.55554,34.51902c5.78391,-4.25437 10.1966,-7.71686 14.82836,-10.85614c6.87448,-4.6593 13.91356,-9.07526 20.86351,-13.6239c3.28277,-2.1485 3.91481,-4.64621 2.00775,-8.39649c-4.82247,-9.48346 -9.08775,-19.25036 -13.91405,-28.73178c-0.86043,-1.69037 -3.65213,-3.90506 -5.02882,-3.59012c-12.5972,2.88144 -25.3978,5.40326 -37.46666,9.85352c-6.56717,2.42166 -12.77528,4.78671 -19.64269,4.00863c-6.03117,-0.68335 -11.95762,-2.29089 -18.91977,-3.68893c-0.58102,0.65494 -2.02282,2.05106 -3.18505,3.65039c-1.34058,1.84473 -2.43444,3.86875 -4.09058,5.80429c-2.29478,0.05637 -4.13443,0.12335 -6.35355,0.09708c-5.2218,-0.18442 -10.06413,-0.27558 -15.11604,-0.4065c-0.25169,0.13175 -0.29378,0.30329 -0.33588,0.4748c0.19336,-0.18384 0.3867,-0.36768 0.27875,-0.21161c-0.01475,1.19256 0.2718,2.04526 0.18944,3.04046c-1.64001,0.44172 -2.91112,0.74088 -4.18223,1.04004c-1.30517,-0.10568 -2.79072,-0.6745 -3.88824,-0.24701c-14.34227,5.58612 -22.09273,3.97937 -32.73347,-6.73401c-0.78724,-0.7926 -2.58326,-0.91803 -3.86514,-0.81131c-2.30383,0.19178 -4.56102,1.06922 -6.85968,1.17301c-5.71543,0.258 -11.61203,-3.37494 -13.37265,-7.94342c-2.17161,-5.63495 -0.66251,-11.77838 4.35803,-15.65232c2.14756,-1.6571 2.773,-3.0548 2.24085,-5.76058c-2.18838,-11.12714 2.58196,-18.288 13.66082,-21.03098c1.60178,-0.39658 3.2113,-0.76184 4.83329,-1.14538c-4.02194,-12.67872 -2.36822,-16.21866 9.76151,-21.93076c1.12228,-0.52853 2.29552,-1.93006 2.56905,-3.12647c2.48769,-10.88101 14.82745,-15.72871 24.66724,-12.63552c4.49711,1.41369 7.8665,1.60682 12.27261,-1.44132c9.17111,-6.34457 22.54585,-2.57632 28.35991,6.95033c0.68027,1.11467 1.30524,2.2631 2.18925,3.80227c5.38842,-3.3424 10.81958,-4.06186 17.1223,-3.204c3.68263,0.50127 7.89673,-2.90196 11.72975,-5.44399c-9.5531,-2.17661 -16.26963,-7.60647 -22.37967,-14.20295c-1.08827,-1.17491 -3.51499,-1.32124 -5.37036,-1.53232c-4.41543,-0.5023 -9.01875,-0.14606 -13.25524,-1.25154c-7.27106,-1.89733 -11.71929,-8.04856 -11.83916,-14.92281c-0.09856,-5.65344 4.74551,-12.56207 10.93214,-14.85595c3.23751,-1.2004 6.76209,-1.62656 10.25092,-2.42385c3.78947,-13.69765 6.17288,-15.64433 20.71803,-17.15983c1.09581,-0.11419 2.63425,-0.93155 3.04996,-1.84111c3.42587,-7.49572 9.69487,-11.13039 17.97628,-13.35431c8.54162,-3.13079 15.82496,-1.13225 23.05616,2.38049c1.33203,1.31006 2.59503,2.31377 4.17859,3.44168c3.21975,4.61576 6.11895,9.10729 9.33218,14.0853c14.84918,0.14453 18.70448,2.43786 22.0834,13.76192c3.38886,0.7165 6.78965,1.43553 10.24677,2.10484c0.05634,-0.04971 -0.15308,0.06404 -0.0238,-0.27585c-5.65021,-8.3806 -11.37821,-16.45958 -17.28609,-24.40482c-0.6129,-0.82426 -2.27765,-0.91639 -3.48319,-1.24122c-5.05114,-1.36101 -10.11328,-2.68128 -15.17416,-4.3936c-0.63978,-1.14742 -1.1271,-2.28461 -1.94263,-2.61736c-2.2176,-0.90474 -4.57411,-1.46905 -7.13046,-2.3974c-1.40399,-1.57551 -2.55308,-2.92192 -3.91862,-4.52192c-6.41071,2.08869 -12.78971,5.94609 -19.99723,2.58502c-8.89602,-3.64467 -12.73123,-8.33464 -11.88846,-14.53809c0.76387,-5.62268 6.46116,-9.73489 14.92623,-11.17357c1.73149,-0.29426 3.6371,-1.34231 4.84514,-2.62451c4.72,-5.0097 10.20416,-7.93103 17.23767,-7.46002c1.32831,0.08895 2.66406,0.15397 3.99373,0.12153c7.95668,-0.19411 8.67122,-0.89282 9.18574,-8.83143c0.46378,-7.15528 5.89609,-13.67023 14.65737,-14.76249c8.44166,-1.05242 15.24092,-3.29996 21.66032,-9.48486c3.65164,-3.51821 10.73554,-3.39443 16.19101,-5.16565c1.77017,-0.57473 4.16827,-1.58658 4.77002,-3.02835c7.41428,-17.76461 31.86352,-22.17538 44.38977,-15.86593c4.14194,2.08626 8.68225,3.93567 11.9606,7.03538c3.6973,3.49585 5.82617,2.66005 8.96344,-0.30092c6.77747,-6.39662 14.83112,-9.89766 24.32434,-10.05619c10.23163,-0.17089 18.93775,3.35525 26.16529,10.40207c2.05575,2.00442 3.41439,2.1133 5.93521,0.81163c17.36126,-8.96481 32.68686,-6.30011 46.04397,8.01453c1.98999,2.13268 3.383,2.18253 5.91922,1.11356c6.93384,-2.92245 13.89072,-2.53039 20.85394,0.47274c1.60285,0.6913 4.15558,0.58001 5.69898,-0.23955c5.85938,-3.11144 12.00217,-3.95496 18.40811,-3.06474c9.59076,1.33282 13.95587,5.6266 17.107,16.50906c3.61712,-1.02037 7.19036,-2.3168 10.87695,-3.01537c12.05902,-2.28508 23.0249,-0.045 32.88184,7.72612c6.33526,4.99465 7.77099,11.6442 7.71087,18.9449c-0.0487,5.91307 1.3421,7.14406 7.3775,7.65174c7.71381,0.64888 14.42688,3.47834 17.45661,11.66934c-4.3822,3.33739 -4.34473,3.80107 0.11133,6.3114c-2.93232,3.01076 -5.86457,6.02153 -9.46936,8.89439c-7.16095,-3.29918 -13.59052,-6.5928 -20.1825,-9.52084c-1.49176,-0.66261 -4.18878,-0.79997 -5.2334,0.09789c-4.49939,3.867 -8.59015,8.20936 -12.82977,12.37863c-7.85162,3.10376 -15.69165,2.08928 -23.85864,-0.67063c-2.2937,-1.45367 -4.25727,-2.30325 -6.22077,-3.15283c-3.10937,-2.08081 -6.21875,-4.1616 -9.76379,-6.6805c-1.20667,-0.41006 -1.97766,-0.38206 -2.7486,-0.35406c0.41187,0.75996 0.82379,1.51991 1.23566,2.27986c-0.93103,1.50318 -1.86206,3.00635 -3.46814,4.64601c-2.22073,-0.56268 -3.76639,-1.26187 -5.30347,-2.33503c-1.1791,-3.15941 -2.36673,-5.94484 -3.54336,-8.70455c-3.70508,1.51544 -6.99793,2.86228 -10.5745,3.94234c-2.20883,-0.17224 -4.16919,0.19533 -6.05059,-0.04787c-2.75055,-0.35554 -5.66282,-0.696 -8.10633,-1.87297c-2.93972,-1.41595 -5.2186,-4.58197 -8.21878,-5.40602c-4.53421,-1.24542 -9.4447,-1.12102 -14.25372,-1.58063c-0.05844,-0.00189 -0.04163,-0.11761 -0.10028,-0.36415c-0.72208,-0.19818 -1.38547,-0.14982 -2.3009,0.15659c-2.70847,3.61723 -5.16495,6.97639 -8.08927,10.31915c-1.71744,-0.05878 -2.96701,-0.10116 -4.06683,-0.48273c0.60568,-1.45346 1.06164,-2.56778 1.2402,-3.0041c-9.55148,0.52609 -18.96109,1.04436 -29.48169,1.62381c2.63245,8.40266 5.33664,17.03438 8.35761,26.67725c5.17929,-5.92186 9.19632,-10.51482 13.35339,-14.75846c0.12842,2.63348 0.11679,4.91763 -0.01398,7.51059c-2.57919,3.42024 -5.26159,6.38895 -7.39425,9.71062c-0.90271,1.406 -1.35056,3.81213 -0.79572,5.3181c1.96588,5.33563 4.45368,10.47899 6.95798,16.18332c2.9386,-3.04993 5.67099,-5.88581 8.66232,-8.55451c0.05167,1.49849 0.01813,2.88724 -0.39892,4.14922c-0.87601,2.65065 -1.95356,5.23469 -3.05823,8.16553c-0.89313,2.34307 -2.95416,5.25495 -2.2609,6.25222c6.53574,9.40216 7.38736,20.55501 10.31723,31.06661c1.26917,4.55342 3.01447,8.97415 4.80677,14.2267c2.83752,-2.50901 4.97827,-4.08995 6.73822,-6.01837c4.70898,-5.15975 9.06717,-10.65049 13.92636,-15.65882c3.6889,-3.80215 4.60531,-7.77859 4.09442,-13.04687c-1.04178,-10.74315 -1.16715,-21.57515 -1.43649,-32.58472c-0.04883,-1.41832 -0.33127,-2.62245 -0.76435,-4.15545c-0.26172,-1.04371 -0.3728,-1.75858 -0.51272,-2.85712c-0.65641,-2.88979 -1.28391,-5.39588 -1.62259,-8.08396c1.20318,-1.01826 2.11755,-1.85455 3.39447,-2.76796c2.08301,-0.39181 3.80356,-0.70649 5.86273,-1.10136c7.30112,-3.57678 14.26355,-7.07338 21.27801,-10.07251c0.13077,2.49387 0.20954,4.4903 0.2883,6.48672c-5.06369,2.91567 -10.12738,5.83132 -15.94903,8.7623c-4.73288,-0.46846 -5.59604,2.4715 -5.89697,5.2622c-0.31836,2.95211 -0.97193,6.44352 3.15323,7.76313c0.30337,1.57419 0.60672,3.1484 0.96011,4.98207c1.39706,-0.34948 2.63037,-0.65803 4.24557,-0.54066c0.40729,2.18518 0.43271,3.94444 0.4581,5.7037c-1.03033,0.50161 -2.06064,1.00324 -3.61142,1.72623c-0.39563,0.85201 -0.27075,1.48265 -0.14587,2.1133c0.22696,1.39029 0.45395,2.78058 0.38495,4.87462c-2.95792,8.26323 -2.49878,10.61427 2.12677,13.11009c0.50738,2.43541 1.01474,4.8708 1.63605,7.85301c3.7821,0 7.70843,0 12.38562,0.15088c0.86441,1.38739 0.97793,2.62392 0.77105,3.89325c-1.07953,0.35707 -1.83859,0.68132 -2.59768,1.00555c-1.37354,0.19327 -2.74704,0.38652 -4.59568,0.1726c-1.03036,-0.86263 -1.5856,-1.31807 -2.14087,-1.77355c-0.43859,0.75141 -0.87719,1.50281 -1.31579,2.25421c-0.75052,0.13243 -1.50104,0.26486 -2.95917,0.48752c-2.55374,3.23338 -4.39996,6.37657 -6.24615,9.51975c-3.81925,6.30169 -7.63846,12.60339 -11.87745,19.32998c-1.22222,1.32221 -2.02468,2.21951 -2.82711,3.11685c-0.9419,0.8039 -1.88382,1.60779 -3.24997,2.83136c-3.64655,3.83011 -6.86884,7.24057 -10.90512,11.51255c5.15029,0 9.06878,0.16348 12.96972,-0.02851c16.37833,-0.80597 32.75144,-1.71823 49.12644,-2.59161c6.66131,7.02551 13.32269,14.05099 20.38843,21.56906c14.05816,17.16989 39.41363,16.79422 52.7276,0.30032c-4.82789,-1.92691 -9.82715,-3.96685 -14.86884,-5.89593c-0.98187,-0.3757 -2.32483,-0.76553 -3.16882,-0.39383c-7.29969,3.21442 -14.62702,2.36206 -22.00122,0.46759c-2.97266,-3.05386 -5.94526,-6.10773 -9.04804,-9.90674c-0.69183,-6.02652 1.22559,-10.31705 5.09827,-13.82602c2.81073,-0.90411 5.64618,-2.62619 8.42706,-2.54205c5.78064,0.17493 8.59155,-2.81543 11.78259,-7.14133c8.44843,-11.45297 25.99421,-13.91055 38.23572,-5.75868c2.73096,1.81856 4.33405,1.80229 6.85846,-0.25609c9.6676,-7.88305 21.91772,-7.1024 31.07819,1.45976c1.07861,1.00817 3.17419,1.63598 4.64025,1.41091c12.63257,-1.93923 20.67273,2.92978 24.94593,15.06637c0.50641,1.43851 2.2522,2.65259 3.69653,3.51206c6.11054,3.63638 8.39081,7.81204 7.51062,14.29632c-0.73828,5.43988 -5.49762,11.03403 -11.45221,11.67124c-5.16229,0.55243 -10.83215,0.57089 -15.65039,-1.04508c-4.89502,-1.64175 -7.24664,0.14997 -10.22974,3.23096c3.06293,0.74802 5.86658,1.06549 8.36219,2.11539c5.96649,2.51007 8.82837,6.79263 8.5647,12.04477c-0.29096,5.79742 -3.77662,11.05636 -9.98871,12.1755c-4.99488,0.89982 -10.5022,0.33335 -15.51502,-0.78244c-2.82086,-0.62786 -4.362,-0.81903 -7.00775,0.79789c-3.66803,2.2416 -8.20465,4.29538 -12.36072,4.27859c-13.65826,-0.0552 -18.55688,-12.47757 -9.88794,-25.69339c3.85541,-2.12973 7.23877,-3.81406 12.33734,-6.3522c-2.95764,-1.2215 -4.65692,-2.29395 -6.48596,-2.60602c-4.63745,-0.79132 -5.24292,3.91879 -7.74011,6.0762c-2.9422,2.66025 -5.93719,5.26599 -8.78393,8.02466c-0.60309,0.58444 -0.66462,1.72775 -0.71863,3.26343c0.62762,2.74786 0.99823,4.84588 1.36877,6.94391c-7.69189,8.94155 -20.46783,9.20678 -27.76306,0.20547c-2.01263,-2.48327 -3.86865,-3.15121 -6.74756,-2.79446c-3.4682,0.42978 -6.96972,0.66052 -10.46387,0.79678c-7.29022,0.28427 -13.20147,-2.15048 -17.75293,-8.22418c-3.88464,-5.18378 -8.08288,-10.25061 -12.83209,-14.61945c-2.4375,-2.24228 -6.41479,-4.07257 -9.64123,-3.98813c-19.14176,0.50092 -38.26496,1.67481 -57.4,2.49238c-5.97162,0.25512 -10.18643,2.76776 -12.23953,8.44253c-4.18765,11.57462 -8.30084,23.17627 -12.43399,34.77057c-6.59546,18.50153 -13.1864,37.00458 -19.77054,55.51013c-2.68271,7.5401 -7.82666,13.06238 -14.2988,17.49692c-16.89617,11.57666 -33.75924,23.20224 -50.71676,34.68838c-6.18259,4.18772 -10.33469,9.77414 -12.93015,16.68329c-4.45065,11.84766 -8.98492,23.66388 -13.42251,35.51636c-0.51578,1.37765 -0.80063,2.88797 -0.92472,4.35937c-4.25131,50.41996 -3.97607,100.848 0.16394,151.2493c0.65097,7.92511 2.57312,15.75348 4.06534,23.59656c0.38269,2.0116 1.36688,3.90881 2.97217,5.5946c-0.80634,-10.40008 -1.79587,-20.78979 -2.38205,-31.20227c-1.3475,-23.93646 -0.67752,-47.68621 8.32596,-70.39203c4.78366,-12.06402 10.91693,-23.41363 21.83407,-31.01489c3.90415,-2.71838 9.02533,-3.6889 14.26536,-5.3056c7.32855,5.34528 13.98275,10.53894 20.63696,15.7326c7.2044,10.3656 7.89038,22.60883 9.92022,34.46332c0.75367,4.40161 1.63471,8.79169 2.10917,13.22437c0.13968,1.30487 -0.91538,2.73761 -2.05442,4.37732c-7.64337,3.92163 -14.65518,7.57763 -22.20401,11.51367c2.84989,6.82678 5.57147,13.93994 8.76825,20.83258c3.0355,6.54498 3.85041,7.00104 10.16138,3.7467c13.71234,-7.07086 27.74713,-13.74963 40.60773,-22.17901c15.57846,-10.21057 26.03238,-8.66907 35.42123,4.86071c0.1795,0.25873 0.51675,0.40796 0.78043,0.60828c9.12082,25.25 18.2579,50.49408 27.34918,75.7547c1.90475,5.29242 3.64059,10.64569 5.47446,16.65802c0.00268,0.91107 -0.01484,1.13501 -0.42527,1.34546c-6.18258,2.37939 -11.97226,4.77228 -17.96978,6.89282c-8.00473,-12.80987 -15.80161,-25.34735 -23.67087,-37.99902c-0.19596,-0.2168 -0.31958,-0.31958 -0.44318,-0.42236c0.19946,0.15234 0.39893,0.30468 0.51837,0.92242c-0.07998,11.87976 -0.07998,23.29413 -0.07998,35.65826c7.31634,1.07923 14.89581,2.19727 22.76898,3.404c1.11447,0.16986 1.93524,0.25109 3.11969,0.36285c1.27124,-0.16772 2.17877,-0.36597 3.53625,-0.65723c4.1951,-0.80273 7.94025,-1.51257 12.03012,-2.27642c3.6771,-1.11567 7.00946,-2.17731 10.34186,-3.23883c2.51209,0.51122 5.02423,1.02252 7.89435,2.09814c0.3974,1.82062 0.43671,3.0769 0.39478,4.68787c-1.1568,6.00988 -0.22004,7.37799 5.34124,7.52532c6.13373,0.16248 12.27515,0.01612 18.4112,0.11933c4.31134,0.07245 6.95916,-1.72949 7.87658,-6.20679c0.68164,-0.90924 1.08362,-1.73358 1.47431,-2.66162c-0.01135,-0.10358 0.16156,-0.21997 0.30389,-0.3222c0.32453,-0.25257 0.47742,-0.42823 0.63117,-0.76575c0.02997,-0.13641 0.01898,-0.41559 0.47906,-0.38312c11.40399,0.04816 22.34784,0.0639 33.32056,0.52832c0.10467,2.83576 0.18054,5.22284 0.01672,7.84638c1.38147,1.87536 3.00269,3.5144 5.27442,5.81091c0.97735,-2.64069 1.4176,-3.83032 2.27966,-5.04163c1.54254,-0.09558 2.66327,-0.16949 4.23413,-0.16803c12.74823,0.20093 25.04627,0.32648 37.32849,0.80713c-0.23907,3.12415 -0.4624,5.89331 -0.7987,10.06409c-12.03382,-0.74866 -24.9582,-1.56049 -37.88392,-2.35083c-2.91424,-0.17822 -5.83245,-0.38464 -8.74975,-0.3985c-6.48609,-0.03076 -13.42066,1.91284 -17.1377,-6.39703c-1.23224,-2.75489 -4.49231,-4.1424 -8.16443,-2.48609c-3.31005,1.49317 -7.27685,1.8075 -10.22833,3.74634c-3.42981,2.25311 -6.06939,5.70917 -9.05194,8.64319c-10.00702,0.10321 -20.0141,0.20642 -30.50098,-0.12976c-1.41412,-1.30573 -2.34845,-2.17206 -3.28271,-3.03845c-0.74011,1.07855 -1.48023,2.1571 -2.22028,3.23565c-7.00821,0.10193 -14.01645,0.20386 -21.59857,-0.09735c-3.70184,-2.64483 -6.70157,-3.23572 -9.38235,0.28095c-5.64096,0.06616 -11.28193,0.18768 -16.92292,0.18957c-37.70706,0.01264 -75.41409,-0.00018 -113.67034,-0.43811c-1.5908,-1.10455 -2.58057,-2.24859 -3.6825,-2.36944c-6.57568,-0.72065 -13.17569,-1.51685 -19.77127,-1.54969c-1.646,-0.00824 -3.30551,2.70002 -4.9588,4.15967c-2.03406,0.06195 -4.06815,0.12384 -6.61133,-0.2345c-2.80991,-3.39416 -4.77667,-3.25525 -6.38647,0.21045c-7.01261,0.07709 -14.02521,0.15418 -21.50269,-0.23675c-1.59418,-5.89783 -5.38312,-4.23102 -9.04266,-3.90821c0.27493,1.62183 0.49002,2.89063 0.70511,4.15937c-2.12632,0.06634 -4.2526,0.13269 -6.79783,-0.31848c-1.71432,-1.75678 -3.0097,-2.99616 -4.30505,-4.23554c-1.01886,1.53577 -2.03775,3.07153 -3.05664,4.60724c-17.01347,0.03876 -34.0269,0.07752 -51.58908,-0.3111c-2.78407,-2.68927 -4.93752,-4.22393 -6.41631,0.23334c-10.78645,0.06348 -21.57301,0.19464 -32.35934,0.17719c-27.56531,-0.04462 -55.13051,-0.1554 -83.33374,-0.64832c-4.70574,-0.97784 -8.02413,-2.271 -7.38278,-7.38983c3.45879,-0.87207 6.91757,-1.7442 10.91793,-2.42725c1.0988,-0.05706 1.65601,-0.30316 2.21322,-0.54931c0.44409,-0.18122 0.88816,-0.36243 1.90083,-0.34851c1.41121,-0.15772 2.25383,-0.5105 3.09645,-0.86329c0.43851,-0.16216 0.87704,-0.32427 1.81861,-0.28247c1.06342,-0.06359 1.62378,-0.33111 2.18414,-0.59863c0.44136,-0.17267 0.88273,-0.34534 1.83265,-0.33288c1.06157,-0.06745 1.61458,-0.32001 2.16761,-0.57258c19.26303,-4.56768 38.51454,-9.18475 57.79281,-13.68713c14.91409,-3.48321 29.91406,-6.61682 44.75313,-10.38867c3.22156,-0.81891 5.92413,-3.69086 8.85068,-5.63977c0.26234,-0.17468 0.36844,-0.5741 0.62257,-0.7724c11.20342,-8.74164 14.83872,-20.75934 15.93903,-34.38232c0.74997,-9.28553 3.6029,-18.23517 8.82979,-26.27784c1.16018,-1.78515 1.32435,-4.42022 1.39393,-6.68103c0.9886,-32.125 1.65654,-64.26184 2.91515,-96.37567c0.46802,-11.94201 2.28926,-23.82965 3.42474,-35.74866c0.1369,-1.43692 0.22534,-3.07589 -0.31018,-4.34936c-6.3848,-15.18308 -12.1248,-30.70639 -19.59738,-45.34226c-6.60236,-12.93139 -15.7132,-24.15731 -29.48073,-30.87066c-8.63191,-4.20914 -16.54517,-1.37635 -24.73512,0.56338c-2.58927,0.61325 -5.15811,1.31262 -8.44159,1.7312c-3.44428,-0.08166 -6.18327,0.07798 -8.92229,0.23761c-0.77069,-0.06778 -1.5414,-0.13553 -2.78392,-0.61438c-1.38756,-0.40304 -2.30328,-0.39498 -3.21902,-0.38696c-4.72765,-0.68466 -9.45529,-1.36932 -14.60926,-2.52454c-1.07777,-1.26715 -1.72924,-2.06381 -2.3807,-2.86044c-0.70211,0.74036 -1.40422,1.48071 -2.10633,2.22107c-0.44261,-0.05029 -0.88523,-0.10055 -1.71649,-0.51919c-0.98781,-0.35248 -1.58699,-0.33658 -2.18617,-0.32068c-1.4343,0.25351 -3.00678,0.21121 -4.28139,0.80658c-11.86572,5.54223 -18.99492,4.08395 -27.63286,-6.0784c-6.09255,4.38549 -12.98428,6.82882 -20.4491,4.6336c-3.30681,-0.9725 -6.76862,-3.05383 -9.02612,-5.62674c-5.10485,-5.81805 -3.42347,-13.57492 3.1099,-18.70428c1.32078,-1.03696 2.78706,-2.92249 2.79719,-4.42612c0.06255,-9.29602 5.12382,-14.61899 14.65102,-14.26037c3.42605,0.12887 5.60575,-0.92264 8.32166,-2.98154c2.77602,-2.10443 6.92951,-2.38324 10.47121,-3.48941c2.2185,-0.69287 4.90939,-0.86215 6.54957,-2.25443c9.35341,-7.93994 26.28535,-7.40216 34.82368,1.44998c0.90563,0.93891 2.05924,2.10636 2.17548,3.26069c0.61314,6.08923 4.9805,6.28472 9.58359,6.91815c3.21894,0.44296 6.51013,1.54626 9.38401,3.07733c7.09496,3.77975 9.29477,11.85608 5.37305,18.33456c-4.10258,6.77738 -14.41012,9.52655 -20.60065,5.4672c-0.7908,-0.51856 -1.46847,-1.20963 -2.5232,-2.0925c-1.8054,2.31991 -3.39972,4.36862 -4.86432,6.25064c6.29919,6.84454 13.71569,7.52228 21.80363,5.18369c7.17941,-2.07593 14.3613,-4.14338 22.08855,-6.37217c-2.18741,-9.9353 -3.78659,-19.62109 -6.66356,-28.91119c-0.9662,-3.12 -5.10104,-5.33106 -7.95328,-7.76328c-1.37186,-1.1698 -3.12869,-1.88809 -5.02704,-3.38946c-1.2736,-0.98599 -2.23137,-1.39331 -3.18913,-1.80063c-5.18565,-3.49341 -10.37129,-6.98679 -15.77799,-11.10513c-1.4026,-4.64884 -3.579,-5.845 -7.15457,-3.0643m175.33902,-200.58863c-3.26571,1.13659 -6.53143,2.27318 -10.2463,3.56609c2.8887,3.93045 0.76647,9.72337 5.47836,12.96698c2.73785,-6.01947 5.21411,-11.46384 8.18231,-17.2367c-0.11502,-1.01854 -0.23001,-2.03707 -0.34503,-3.05561c-0.82202,1.09649 -1.64404,2.19299 -3.06934,3.75924m-139.76059,132.27503c-0.38641,0.12863 -0.77281,0.25723 -1.15921,0.38586c0.44179,0.37198 0.88359,0.74396 1.87484,1.44568c1.26182,1.12317 2.52365,2.24634 3.72297,4.19373c-0.81346,1.212 -1.62692,2.42401 -3.04393,3.38406c-2.5002,-2.61444 -4.95718,-5.27243 -7.52548,-7.81815c-0.82886,-0.82159 -1.87028,-1.70559 -2.9518,-1.94784c-4.87117,-1.09113 -9.7917,-1.96192 -15.33233,-3.03577c-1.31368,2.25366 -3.19095,5.47422 -5.03878,8.64423c5.50571,5.29208 23.12877,12.13205 32.19266,12.37552c2.05986,0.05532 4.14179,-0.71149 6.78928,-1.36121c0.98077,-1.76086 1.96155,-3.52173 3.71624,-5.12512c3.26944,-2.94931 2.93107,-12.65579 0.46016,-15.01029c-4.90417,1.54899 -9.1405,2.88703 -13.70462,3.8693m420.08658,6.40506c-0.28412,-0.62226 -0.56817,-1.24451 -1.52655,-1.90918c-2.93896,-1.51541 -5.13611,-1.57611 -7.53027,1.5845c-2.45728,3.24405 -5.92389,5.76669 -9.12567,8.38901c-2.28717,1.87323 -4.86658,3.38974 -7.6463,5.29178c6.3894,2.13052 10.98846,-0.05823 15.10559,-3.7471c3.45239,-3.09323 6.79101,-6.31339 10.7232,-9.60901m-179.0148,-63.9439c-1.1336,4.16344 -2.21738,8.34125 -3.4115,12.48728c-2.31573,8.04036 -0.92483,15.79222 1.75394,23.4398c0.94714,2.70395 2.6792,4.32871 5.69861,2.93796c5.05978,-2.3306 10.1449,-10.86404 9.25967,-16.42548c-1.79861,-11.30041 -3.96783,-22.5429 -6.08542,-33.79025c-0.30304,-1.60971 -1.1687,-3.11348 -2.22912,-5.834c-1.07608,2.68442 -1.61283,4.02332 -2.96823,5.30252c-4.10203,0.09929 -5.20758,2.97548 -5.6561,6.28955c-0.36609,2.7053 0.67688,4.53879 3.63815,5.59262m-186.73201,1.77718c-1.22473,1.0695 -2.28337,2.54753 -3.7075,3.12663c-3.3463,1.36066 -6.86728,2.29172 -11.14318,3.63764c-2.0332,0.1871 -4.06642,0.37422 -5.79284,0.53309c3.38756,5.00293 7.11653,9.33693 9.40172,14.33152c1.33911,2.92678 2.72769,3.703 5.4992,4.42315c4.60059,1.19547 9.31084,2.62867 13.39218,4.97522c3.99675,2.29792 6.44861,6.45627 6.02625,11.34619c-0.44005,5.09485 -4.12918,7.83622 -8.56255,9.44684c-7.32118,2.65967 -14.64076,2.71884 -21.86952,-0.56778c-1.29176,-0.58731 -2.85628,-1.2258 -4.16141,-1.01489c-4.55134,0.73547 -9.04411,1.83325 -13.73336,2.83035c-0.32383,5.61405 -0.65363,11.33161 -1.03017,17.85956c4.42125,-0.75162 8.80774,-1.30026 13.10161,-2.26236c16.04461,-3.59506 15.39752,-4.84497 26.3497,10.74353c3.47172,4.94141 6.61068,10.11664 10.55691,16.19351c0.55042,-2.21939 0.90781,-3.10647 0.97425,-4.01486c0.60611,-8.28683 1.0227,-16.59021 1.78781,-24.86163c0.41,-4.43231 0.87851,-8.97949 2.24454,-13.17392c1.8898,-5.80261 4.60955,-11.3396 7.07766,-16.94464c0.4169,-0.94675 1.35636,-1.66339 2.05435,-2.48636c0.72568,0.96204 2.20749,2.07599 2.04987,2.86056c-0.80341,3.99869 -2.03787,7.91025 -3.10794,11.85596c-1.45502,5.36511 -3.45398,10.65567 -4.21866,16.11832c-1.22043,8.71853 -0.46091,17.85666 -2.67163,26.25592c-2.43573,9.25424 -0.33081,16.09005 5.48453,23.00992c4.52652,5.38623 8.19162,11.49636 12.58368,17.77688c1.31259,-1.86593 2.22729,-3.0169 2.98367,-4.26391c10.53006,-17.36005 20.75729,-34.91242 31.66556,-52.03098c5.8356,-9.15796 5.15683,-17.8089 -0.38526,-26.12848c-11.03506,-16.56546 -23.97281,-31.17758 -43.83227,-38.36671c-0.94852,-2.67643 -2.40726,-2.29991 -4.86084,-0.74681c-3.36597,-0.80379 -6.73191,-1.60758 -10.12876,-3.1341c0.00968,-2.06344 0.01932,-4.12689 0.81907,-6.21576c11.46438,2.97194 22.92877,5.94387 34.98388,9.06893c-1.39798,-10.90599 -3.39865,-20.91248 -9.45386,-29.97458c-6.6159,8.51687 -6.63696,8.38203 -15.01394,9.69043c-3.53702,0.55244 -7.09772,1.47352 -10.4187,2.80017c-15.25507,6.09399 -25.65923,3.03918 -31.71244,-9.51813c-2.09292,0 -4.12622,0 -6.62823,0c1.25603,3.4921 2.4481,6.53651 3.44365,9.64388c1.19703,3.73631 3.42371,5.59404 7.56108,5.55169c4.1369,-0.04234 8.28039,0.55829 12.39189,1.62601m57.84444,-67.04495c-1.62897,-0.97725 -3.14743,-2.38024 -4.91123,-2.83794c-3.11255,-0.80772 -7.1127,-2.99434 -8.3071,3.64014c-0.40322,3.15709 -0.80648,6.31416 -1.72555,9.71937c0.1041,0.94269 0.20822,1.88538 0.50598,3.71251c0.19391,4.80527 0.37811,9.61096 0.58429,14.41571c0.2294,5.34586 2.17471,9.50031 6.27057,13.42938c3.63943,3.49129 6.27875,8.45559 8.16394,13.24073c2.59958,6.59855 3.64233,13.80551 6.17902,20.43541c1.80856,4.72677 4.97851,8.93265 7.54092,13.371c0.47476,-0.21787 0.94952,-0.43573 1.42429,-0.65359c0,-3.72794 0,-7.45586 0.62207,-11.54102c-0.1929,-3.21867 -0.38581,-6.43733 -0.83106,-10.55971c-0.06277,-3.15559 -0.013,-6.3182 -0.20883,-9.46553c-0.67648,-10.87161 -1.43854,-21.73788 -1.66205,-33.15416c-0.55084,-3.1566 -0.65112,-6.48295 -1.76095,-9.42897c-1.56037,-4.142 -3.87003,-8.00172 -6.33963,-12.53413c-1.73865,-0.36097 -3.4773,-0.72194 -5.54468,-1.7892m120.33118,46.50068c-4.9516,-3.61099 -10.0561,-7.03764 -14.76407,-10.94235c-1.46201,-1.21255 -1.84861,-3.72171 -2.72754,-5.63725c0.47738,-0.25459 0.9548,-0.50917 1.43219,-0.76376c6.19528,4.68385 12.39053,9.36769 18.58581,14.05154c0.60962,-0.34653 1.21927,-0.69307 1.82889,-1.0396c0,-3.71042 0.81097,-7.65149 -0.16537,-11.08422c-2.1698,-7.62896 -4.81037,-15.19272 -8.04175,-22.43378c-4.09152,-9.16855 -8.06815,-18.31142 -8.39127,-28.47994c-0.18146,-5.71098 -3.02371,-9.0249 -8.09704,-11.4093c-5.71821,9.95647 -14.62241,12.41188 -25.19934,11.05444c-0.74872,-0.09608 -1.60831,0.67185 -2.74686,1.70575c-4.09851,2.25171 -8.11988,4.66266 -12.32318,6.69799c-2.70868,1.3116 -5.68436,2.07181 -9.24942,2.97543c-1.30039,-0.25865 -2.60074,-0.5173 -4.70349,-0.82338c-4.62125,1.09195 -11.54572,12.39938 -10.19941,16.7645c0.16977,0.55044 0.85416,0.94215 1.16153,2.15774c-1.31652,3.89981 -3.78271,7.80467 -3.76562,11.69866c0.12405,28.32434 0.58798,56.65066 1.32525,84.96644c0.1876,7.20477 1.78806,14.36017 6.15241,20.70636c7.87488,-7.08725 15.09097,-14.28344 23.0914,-20.46438c3.6087,-2.788 4.05514,-5.06501 3.24335,-9.03013c-3.03775,-14.83808 -6.19333,-29.67805 -8.3667,-44.65345c-0.79727,-5.49367 -0.07852,-11.78125 1.89288,-16.96765c2.92182,-7.68671 7.50436,-14.75509 11.5676,-21.98117c0.6185,-1.09996 2.2471,-1.63195 3.40848,-2.42666c0.68893,1.20742 2.083,2.50272 1.94531,3.60711c-0.61038,4.89639 -1.17859,9.89302 -2.67972,14.55809c-1.67395,5.20208 -4.55542,10.00439 -6.47815,15.14277c-0.87424,2.33643 -0.70605,5.06291 -1.14041,8.69802c12.48981,-9.46514 20.36941,-19.93509 21.93719,-34.31879c0.30677,-2.81435 0.65177,-5.63586 1.21448,-8.40628c0.28934,-1.42452 1.0972,-2.74371 1.67075,-4.1105c0.45422,0.03039 0.90844,0.06079 1.36267,0.09118c0.37152,1.1145 1.06537,2.22896 1.06546,3.34349c0.00128,13.68277 -2.63257,26.50426 -12.35065,36.96569c-2.03857,2.19451 -3.74142,4.71501 -5.87128,6.80821c-7.84289,7.70787 -7.69891,16.34393 -3.47216,25.69127c3.14794,6.96167 5.92105,14.09439 9.15271,21.01477c0.46197,0.98931 2.59832,1.76007 3.90985,1.69052c5.31662,-0.28189 10.60443,-1.11887 15.92111,-1.38233c3.82718,-0.1896 4.91675,-1.9476 5.33188,-5.58917c0.63275,-5.55038 1.51837,-11.20901 3.34417,-16.45721c3.54722,-10.19631 7.82224,-20.13942 12.44169,-30.25626c0.77764,-0.8444 1.57559,-1.67317 2.2727,-2.57953c0.03476,-0.04518 -1.07397,-1.18127 -1.19672,-1.10252c-0.93997,0.60316 -1.76742,1.38168 -3.32961,1.94964m1.10775,80.60076c1.92984,-2.77027 3.85971,-5.54056 6.60095,-9.47556c-20.79211,2.11469 -40.15179,4.05152 -59.4974,6.11972c-1.36942,0.14643 -3.00135,0.94275 -3.89343,1.97223c-9.78592,11.29306 -20.40409,22.02671 -28.90995,34.22733c-11.30221,16.21176 -20.95038,33.57831 -31.23965,50.49109c-0.7428,1.22097 -1.49372,2.88781 -1.26709,4.17608c1.73685,9.87336 3.71512,19.70429 5.76248,30.29364c1.80441,-1.3428 2.5979,-1.90936 3.36594,-2.50857c8.61419,-6.72089 17.32315,-13.32669 25.76525,-20.25739c2.06168,-1.69253 3.29471,-4.42202 4.82065,-6.73291c2.15885,-3.26944 3.77439,-7.03903 6.44391,-9.80041c5.53781,-5.72833 10.07852,-11.88037 12.30478,-19.63501c0.78107,-2.7208 1.85196,-5.87653 5.57977,-5.11142c3.92548,0.80566 3.54239,4.47043 2.72913,6.93149c-2.12433,6.42822 -4.85757,12.65951 -7.45135,18.92657c-1.35932,3.28446 -2.93586,6.47907 -4.60557,10.13269c1.58689,0.20581 2.26243,0.47174 2.84848,0.33988c3.24442,-0.72986 6.48923,-1.47638 9.69333,-2.36374c15.72248,-4.35437 15.5116,-4.45685 21.82636,-19.58796c9.41956,-22.57073 19.16427,-45.00576 29.12341,-68.13775m-141.40536,126.837c-4.03879,-24.94525 -16.33112,-45.96441 -31.20383,-65.38555c-9.58429,6.89843 -19.38156,13.7568 -28.96162,20.90621c-7.76613,5.79575 -9.25914,12.16523 -4.40148,20.46305c2.82555,4.8266 6.42641,9.31787 10.26137,13.41427c15.80246,16.87989 31.81532,33.56299 47.795,50.27628c1.31424,1.37457 2.95996,2.43225 5.32208,4.34027c1.9982,-5.60754 4.06394,-10.30212 5.284,-15.20706c0.84671,-3.4039 1.18469,-7.21186 0.58642,-10.63599c-1.0263,-5.87372 -2.9624,-11.58847 -4.68194,-18.17148m117.97076,297.33542c16.48371,2.68384 32.96741,5.36768 50.39362,8.20496c-2.54892,-14.63031 -4.93482,-28.32477 -7.43772,-42.69074c-15.86648,11.88214 -26.60073,28.72919 -46.9815,33.13196c1.51983,0.60358 2.38153,0.9458 4.0256,1.35382m-280.01157,-438.42245c-0.64061,-0.10971 -1.28124,-0.21945 -1.84741,-0.31644c1.45413,3.54474 2.20902,7.53012 4.44865,10.3263c3.11942,3.89459 7.34998,6.89919 12.11858,11.1986c6.52829,-0.74136 13.09656,2.11835 17.53983,9.49201c4.84276,8.03662 21.83983,11.12735 29.52786,5.54724c-12.9642,-7.9162 -26.06787,-15.71573 -35.27502,-28.41248c-0.64482,-0.88922 -1.70116,-1.78204 -2.72704,-2.04464c-7.66035,-1.96079 -15.36127,-3.76303 -23.78545,-5.79059m160.20405,-94.94066c0.60168,-7.41861 1.20337,-14.83721 1.82067,-22.44885c-8.07928,2.86416 -15.03057,5.32844 -22.85833,8.10342c6.64001,8.22794 13.16946,16.31883 19.69891,24.40974c0.43851,-0.25332 0.87705,-0.50663 1.31555,-0.75996c0,-2.79384 0,-5.58768 0.0232,-9.30435m-75.9246,38.26118c-8.23332,0.82967 -16.46664,1.65932 -26.10516,2.63059c3.95483,2.23832 7.11318,5.33778 10.58716,5.74512c10.26382,1.20343 20.65245,1.34251 31.60467,1.93087c-1.79943,-5.90864 -3.26445,-10.7192 -4.66771,-15.32701c-3.7489,1.68553 -7.19694,3.2358 -11.41896,5.02043m-54.91076,195.22196c-2.45368,-0.40723 -4.90735,-0.81445 -7.36102,-1.22168c0.86198,2.28048 1.6117,3.81997 2.7975,4.31515c1.53036,0.63898 3.40948,0.44269 5.13841,0.60614c0.01942,-1.0794 0.03885,-2.15878 -0.57489,-3.69961z" id="svg_2"/>
  <path fill="#D69E4E" d="m641.99707,745.21521c-12.29809,-0.12555 -24.59613,-0.2511 -37.42957,-0.83765c-0.61547,-8.86725 3.47211,-13.21679 11.67737,-13.33917c4.80786,-0.07171 9.61756,-0.01312 15.24305,-0.01312c-4.6084,-6.13434 -8.36799,-10.96173 -11.93085,-15.93024c-3.72034,-5.18811 -6.81629,-10.68603 -6.53662,-17.39435c0.27276,-6.54046 2.41546,-12.19983 8.0935,-16.26995c-6.89593,2.20001 -13.47302,4.65795 -19.99225,7.2608c-4.00927,1.60065 -7.13342,0.36743 -8.97052,-3.76599c-3.66095,-8.23712 -5.16601,-16.72791 -3.60046,-25.73926c1.02643,-5.90845 1.61639,-11.8927 2.40186,-17.84296c-7.18934,14.60962 -11.5821,29.98773 -15.01191,46.008c-2.42779,12.36902 -4.60485,24.474 -6.93469,36.88959c-3.52624,3.1438 -6.89972,5.97705 -10.66504,8.75946c-3.45825,-2.31684 -8.5664,-3.0246 -7.05163,-8.83155c0.07013,-0.26874 -0.92188,-0.81457 -1.39307,-1.63488c0.87775,-5.81873 1.90448,-11.2132 2.54846,-16.65296c1.97315,-16.66833 4.1684,-33.35718 2.38526,-50.17798c-0.38984,-3.67749 -1.65711,-7.45941 -3.35907,-10.76092c-4.068,-7.89106 -7.97766,-15.72547 -7.14765,-25.00238c1.30145,-1.90876 2.24329,-3.75544 3.18512,-5.60212c-0.8916,-0.40405 -1.7832,-0.8081 -2.67035,-1.23919c0.00452,-0.02698 0.05713,-0.01172 0.07929,-0.32214c0.01947,-0.51789 0.01678,-0.72529 0.04022,-1.30909c0.73535,-3.07031 1.44458,-5.76422 2.15381,-8.45813c-0.3645,-0.13055 -0.72901,-0.2611 -1.09357,-0.3916c-1.77411,2.78705 -3.54822,5.57416 -5.59064,8.35224c0.30005,-3.39972 0.63349,-6.85682 1.56379,-10.14509c0.3269,-1.15563 2.04339,-2.57336 3.2536,-2.70648c4.38763,-0.48285 5.98492,-2.63537 5.84521,-6.96862c-0.12359,-3.83356 1.18518,-7.24073 5.22577,-8.81849c3.44507,-1.34533 3.96295,-4.1643 3.99835,-7.55188c1.50464,-0.71209 2.70142,-1.24218 3.89319,-1.78332c8.89789,-4.04004 17.79468,-8.08234 26.69184,-12.12396c3.38055,2.88165 7.46063,5.24658 10.03173,8.72632c21.74884,29.43475 43.25977,59.04595 64.7627,88.6618c10.57843,14.56958 16.12878,30.76678 16.2843,48.94635c0.11261,13.16443 5.10413,19.47662 18.15765,21.84765c14.70667,2.67127 29.61908,4.40094 44.51154,5.80048c13.07922,1.22901 26.25452,1.435 39.38721,2.0968c0.83172,0.04187 1.86511,-0.17791 2.458,0.22907c2.86017,1.96319 7.53907,3.78412 7.94001,6.24676c0.63269,3.88697 -4.211,4.10303 -7.40027,4.81745c-0.64893,0.14532 -1.28162,0.36297 -2.68683,0.63263c-6.88788,-0.25324 -13.00812,-0.64924 -19.13397,-0.92029c-27.59082,-1.22119 -55.17517,-2.68158 -82.77838,-3.48761c-13.45978,-0.39307 -26.95588,0.45807 -40.43549,0.74597m-81.99707,-150.72058c0.33893,5.3681 1.26093,10.7829 0.83557,16.08972c-0.35138,4.38306 -3.17572,8.67706 1.7619,12.33179c0.60425,0.44726 0.05158,2.49695 -0.0166,3.80139c-0.06207,1.18634 -0.19433,2.3689 -0.40924,4.8822c7.02472,-6.84985 14.53107,-9.94934 22.76874,-9.41882c7.98639,0.51434 12.83441,-3.58637 17.19385,-9.03015c1.93566,-2.41718 3.64441,-5.32172 -1.45905,-6.59919c-0.93054,-0.2329 -1.83624,-1.43481 -2.32721,-2.40509c-2.27319,-4.49285 -4.37634,-9.07141 -6.57849,-13.6007c-2.16638,-4.45575 -5.62463,-6.89637 -10.71265,-6.53437c-6.04956,0.4303 -12.11017,0.80689 -18.12292,1.55365c-1.04682,0.13001 -2.3056,1.83716 -2.70459,3.06378c-0.49274,1.51471 -0.18891,3.28858 -0.22931,5.86579z" id="svg_3"/>
  <path fill="#293D43" d="m525.5249,221.8779c-1.26959,-0.24019 -2.53222,-0.52905 -3.80999,-0.71202c-5.01105,-0.71752 -9.80921,-5.1637 -10.67753,-9.93529c-0.8916,-4.8995 1.46097,-10.15152 6.91282,-11.96066c6.77136,-2.24706 11.95935,-5.95053 17.66107,-10.23241c6.79205,-5.10069 14.15893,-9.31495 20.67126,-15.31055c7.3711,-6.78619 20.83423,-4.83683 28.47309,2.50081c2.4237,2.3282 4.12335,2.74315 7.26019,1.53023c9.57129,-3.701 21.14978,-1.24095 24.91235,6.61379c3.30042,6.8898 6.11945,13.07974 13.12219,17.29057c4.10974,2.47124 3.784,8.09921 1.69465,12.38411c-2.52601,5.18027 -7.73456,7.70016 -12.89747,6.77043c-5.94653,-1.07086 -9.807,0.4908 -14.57232,3.91356c-8.55396,6.14389 -20.93787,4.98814 -29.41907,-1.653c-2.36975,-1.85556 -3.96185,-1.62782 -6.55127,-0.58717c-5.36169,2.1548 -10.99512,3.63333 -16.90668,5.04312c-0.37878,-1.04612 -0.36779,-1.74541 -0.27478,-2.681c-0.70019,-0.41909 -1.48242,-0.60189 -2.62127,-0.779c-3.59363,-1.11955 -6.90668,-3.30961 -10.04706,-3.08503c-3.47681,0.24863 -6.79559,2.70584 -10.26288,3.8109c-0.9422,-1.23403 -1.80475,-2.0777 -2.6673,-2.92139z" id="svg_4"/>
  <path fill="#D4A152" d="m501.74228,526.00952c5.84955,-1.82251 11.77982,-3.43182 17.49991,-5.59637c1.73388,-0.65619 3.48962,-2.60407 4.20624,-4.37641c4.08056,-10.0917 13.31597,-15.65793 24.18383,-15.85568c12.61353,-0.22955 20.55207,6.83869 28.10498,15.38406c3.21021,3.63209 2.94544,7.47162 1.72242,12.01703c-0.24811,0.40015 -0.62208,0.38807 -0.6427,0.00086c-0.39063,-2.31641 -0.76063,-4.24561 -1.33112,-7.22046c-3.22894,4.31921 -5.64178,7.46332 -7.96259,10.67401c-2.43029,3.36224 -4.69079,6.8493 -7.17309,10.17151c-3.20258,4.28619 -6.77759,3.9342 -8.67304,-1.08051c-1.03051,-2.72613 -1.56707,-5.83123 -1.49377,-8.74438c0.18176,-7.22522 0.84216,-14.43836 1.31024,-21.65634c-0.40344,-0.26352 -0.80688,-0.52704 -1.21039,-0.79056c-0.77856,1.30499 -2.0119,2.53186 -2.25213,3.92938c-0.78559,4.5708 -1.80567,9.22418 -1.6482,13.80841c0.32617,9.49439 -3.33862,19.65802 3.71491,28.31665c-0.19721,2.52033 -0.75757,5.20679 0.18066,7.18109c2.70239,5.68653 4.58081,5.71485 8.97052,1.01996c1.07514,-1.14984 2.44867,-2.02057 3.685,-3.01965c0.25891,0.28351 0.51788,0.56708 0.77679,0.85058c-1.52691,2.78376 -3.05383,5.56757 -4.88043,8.56202c-5.37652,0.79974 -10.45343,1.38879 -15.54864,1.5636c-0.55036,-4.30054 -1.08234,-8.18683 -1.25678,-12.14771c3.56781,-4.39996 -2.34942,-5.61853 -2.78638,-8.82349c-0.10333,-0.75781 -2.82849,-1.20251 -4.38964,-1.64166c-0.13953,-0.03924 -0.59046,1.02875 -1.3385,1.59015c-4.46399,-0.26648 -8.48615,-0.54071 -12.41712,-1.10156c0.35339,-0.81891 0.61548,-1.35126 1.21723,-1.99774c3.19726,-1.90168 6.05499,-3.68927 8.91266,-5.47681c-0.36774,-0.64594 -0.73548,-1.29187 -1.10322,-1.93781c-1.84277,0.72126 -3.73883,1.33112 -5.51959,2.18201c-11.39074,5.44244 -21.86117,2.25494 -25.88138,-8.29767c1.1218,-2.70489 2.07254,-5.09564 3.02332,-7.48651m23.79312,-9.08844c0.17566,1.25189 0.23761,3.54645 0.54627,3.58008c1.55865,0.17017 3.18151,-0.24829 5.21118,-0.51721c-1.30652,-3.04889 -1.82727,-5.80853 -5.75745,-3.06287z" id="svg_5"/>
  <path fill="#F9AD7B" d="m474.51211,635.18402c-0.60498,-0.09296 -0.94223,-0.24219 -1.12173,-0.50092c-9.38885,-13.52978 -19.84277,-15.07128 -35.42123,-4.86071c-12.8606,8.42938 -26.89539,15.10815 -40.60773,22.17901c-6.31097,3.25434 -7.12588,2.79828 -10.16138,-3.7467c-3.19678,-6.89264 -5.91836,-14.0058 -8.76825,-20.83258c7.54883,-3.93604 14.56064,-7.59204 21.89188,-11.25238c1.95825,8.1543 2.36929,8.59973 10.56344,6.08111c15.55375,-4.78063 31.02216,-9.84057 46.50629,-14.84552c8.59198,-2.77716 15.8277,1.41816 22.30191,5.54548c6.79502,4.33191 3.38132,18.05163 -5.1832,22.23321z" id="svg_6"/>
  <path fill="#30444A" d="m641.9812,745.57031c13.49548,-0.643 26.99158,-1.49414 40.45136,-1.10107c27.60321,0.80603 55.18756,2.26642 82.77838,3.48761c6.12585,0.27105 12.24609,0.66705 18.73016,1.02295c1.06354,1.76239 1.76581,3.50732 2.46808,5.25226c-1.7887,0.60998 -3.57129,1.73156 -5.36725,1.75335c-28.12122,0.34119 -56.24377,0.68946 -84.36658,0.73944c-48.60028,0.08637 -97.20105,-0.03265 -146.25524,-0.19946c2.52887,-3.06793 5.16845,-6.52399 8.59826,-8.7771c2.95148,-1.93884 6.91828,-2.25317 10.22833,-3.74634c3.67212,-1.65631 6.93219,-0.2688 8.16443,2.48609c3.71704,8.30987 10.65161,6.36627 17.1377,6.39703c2.9173,0.01386 5.83551,0.22028 8.74975,0.3985c12.92572,0.79034 25.8501,1.60217 37.88392,2.35083c0.3363,-4.17078 0.55963,-6.93994 0.7987,-10.06409z" id="svg_7"/>
  <path fill="#2C3F45" d="m373.54483,539.05084c-3.20364,-6.73291 -6.83398,-13.30255 -9.48947,-20.24511c-2.59308,-6.77942 -0.88193,-12.60605 3.81201,-18.81687c7.8053,-10.32745 17.55432,-12.45682 29.39709,-11.33871c6.0087,0.56729 12.15555,0.04284 18.21091,-0.39228c3.7695,-0.2709 5.27097,1.6445 5.66342,4.75473c0.69083,5.47455 -2.24292,9.11246 -7.28955,12.02512c-3.38275,0.94098 -6.23382,1.41934 -8.76437,2.59039c-1.33368,0.61722 -2.57324,2.29239 -3.04706,3.7522c-1.39502,4.29828 -2.38629,8.72754 -3.84476,14.28314c-2.63165,-2.45331 -3.99041,-4.1253 -5.72073,-5.198c-1.26276,-0.78271 -3.32486,-1.4505 -4.46082,-0.92883c-1.10769,0.50879 -1.85153,2.5351 -2.0892,4.00299c-0.22476,1.38837 0.02133,3.1576 0.74433,4.34162c3.01333,4.93475 -1.25803,7.31067 -3.6084,10.02148c-2.54166,2.93133 -6.04819,3.15924 -9.5134,1.14813z" id="svg_8"/>
  <path fill="#F9AD7B" d="m373.37384,539.37512c3.6362,1.68683 7.14273,1.45892 9.68439,-1.47241c2.35037,-2.71081 6.62173,-5.08673 3.6084,-10.02148c-0.723,-1.18402 -0.96909,-2.95325 -0.74433,-4.34162c0.23767,-1.46789 0.98151,-3.4942 2.0892,-4.00299c1.13596,-0.52167 3.19806,0.14612 4.46082,0.92883c1.73032,1.0727 3.08908,2.74469 5.72073,5.198c1.45847,-5.5556 2.44974,-9.98486 3.84476,-14.28314c0.47382,-1.45981 1.71338,-3.13498 3.04706,-3.7522c2.53055,-1.17105 5.38162,-1.64941 8.46484,-2.40829c1.34299,4.86859 2.12867,9.78012 3.37812,14.57065c0.6412,2.45831 1.8988,4.83331 3.25988,7.00671c1.65055,2.63574 2.60135,4.67212 -1.29031,6.12531c-4.85172,1.81176 -3.2738,6.55883 -3.63971,9.92315c-0.46072,4.23615 -2.15485,5.30121 -5.97012,5.32068c-3.03681,0.01544 -7.17185,-0.32141 -8.88062,1.41071c-3.83462,3.8869 -6.46307,8.96368 -9.66433,13.91125c-6.736,-4.8385 -13.3902,-10.03216 -20.29203,-15.43542c0.75232,-2.9242 1.75226,-5.63886 2.92325,-8.67774z" id="svg_9"/>
  <path fill="#7D5633" d="m540.69543,610.9787c1.77411,-2.78711 3.54822,-5.57422 5.32233,-8.36127c0.36456,0.1305 0.72907,0.26105 1.09357,0.3916c-0.70923,2.69391 -1.41846,5.38782 -2.30274,8.59302c-0.23108,0.63116 -0.36389,0.78601 -0.3283,0.86432c0.10162,0.22345 0.27172,0.41571 0.41485,0.6203c0,0 -0.05261,-0.01526 -0.13342,0.32861c-0.31982,2.42475 -0.55896,4.50562 -0.7981,6.58649c-0.47039,9.21484 3.43927,17.04925 7.50727,24.94031c1.70196,3.30151 2.96923,7.08343 3.35907,10.76092c1.78314,16.8208 -0.41211,33.50965 -2.38526,50.17798c-0.64398,5.43976 -1.67071,10.83423 -2.76513,16.92175c-3.81269,9.45075 -6.44501,11.10077 -13.89313,9.22895c5.13653,-4.75989 7.88171,-10.79163 8.22833,-17.63092c0.89124,-17.58155 1.60425,-35.17701 1.96753,-52.77558c0.05841,-2.83197 -1.95117,-5.7503 -3.17035,-8.55682c-4.16064,-9.57843 -10.34271,-18.45178 -9.81409,-29.62543c0.1236,-2.61322 0.06604,-5.49017 -0.88891,-7.84857c-2.31159,-5.7085 -1.01612,-10.67157 1.88714,-15.63794c2.01111,-3.44018 4.14753,-6.86688 5.6178,-10.54358c1.06867,-2.67248 1.13977,-5.74396 1.82056,-9.18646c2.8999,-1.13532 5.63482,-1.72168 8.13147,-2.07471c-1.17908,1.36566 -2.38245,2.36829 -3.01636,3.65216c-3.14056,6.36127 -4.62537,13.5149 -10.15509,18.74231c-1.41962,1.34198 -1.21039,4.66907 -1.29736,7.10028c-0.15058,4.20905 1.84552,5.38861 5.59832,3.33228z" id="svg_10"/>
  <path fill="#CF9B4F" d="m576.83758,527.97022c0,0 0.37397,0.01208 0.56025,0.01623c4.22076,9.44409 8.25518,18.88391 11.953,28.67841c-2.17657,0.93945 -4.07843,1.37939 -5.84595,2.13397c-8.14544,3.47705 -16.25341,7.04187 -24.37488,10.57519c1.52692,-2.78375 3.05384,-5.56756 4.58075,-8.35132c-0.25891,-0.2835 -0.51788,-0.56707 -0.77679,-0.85058c-1.23633,0.99908 -2.60986,1.86981 -3.685,3.01965c-4.38971,4.69489 -6.26813,4.66657 -8.97052,-1.01996c-0.93823,-1.9743 -0.37787,-4.66076 0.14539,-7.07623c5.79932,2.48895 9.42596,1.01117 12.9848,-3.50366c5.70905,-7.24274 10.995,-14.58087 13.42895,-23.6217z" id="svg_13"/>
  <path fill="#D4A152" d="m535.43884,732.09485c7.79572,1.80865 10.42804,0.15863 14.21472,-8.88855c0.71387,0.14795 1.70588,0.69378 1.63575,0.96252c-1.51477,5.80695 3.59338,6.51471 7.10132,9.09656c0.51995,1.04035 0.59826,1.76483 0.67651,2.48938c0,0 0.01099,0.27918 -0.23578,0.40961c-0.54913,0.29516 -0.65247,0.54303 -0.5567,0.87396c0,0 -0.17291,0.11639 -0.44348,0.30389c-0.67109,1.01252 -1.07147,1.83753 -1.47193,2.66254c-0.63788,4.39246 -3.2857,6.1944 -7.59704,6.12195c-6.13605,-0.10321 -12.27747,0.04315 -18.4112,-0.11933c-5.56128,-0.14733 -6.49804,-1.51544 -5.0733,-7.69818c1.15265,-1.75787 1.95612,-2.98828 2.75952,-4.21869c2.35132,-0.64422 4.70264,-1.28839 7.40161,-1.99566z" id="svg_14"/>
  <path fill="#2C3F45" d="m559.36987,161.86722c3.86676,-4.18169 7.95752,-8.52405 12.45691,-12.39105c1.04462,-0.89786 3.74164,-0.7605 5.2334,-0.09789c6.59198,2.92804 13.02155,6.22166 19.83936,9.56119c-8.71064,5.04881 -18.32392,4.13385 -27.73853,2.22386c-3.49701,-0.70949 -6.37061,-0.87874 -9.79114,0.70389z" id="svg_15"/>
  <path fill="#9E2721" d="m558.83032,569.58472c8.42115,-3.74402 16.52912,-7.30884 24.67456,-10.78589c1.76752,-0.75458 3.66938,-1.19452 5.88343,-1.79175c0.75689,1.0567 1.13964,2.12585 1.51647,3.52991c-8.90307,4.37646 -17.79986,8.41876 -26.69775,12.4588c-1.19177,0.54114 -2.38855,1.07123 -4.27576,1.76831c-3.83746,1.15936 -6.98223,2.15674 -10.12701,3.15417c-2.73499,0.58643 -5.46991,1.17279 -8.55438,1.91535c-0.86811,0.01282 -1.3866,-0.13056 -2.20624,-0.72431c-0.57404,-0.68444 -0.84692,-0.91851 -1.11987,-1.15258c0,0 -0.19678,-0.41584 0.13385,-0.85566c1.96789,-2.13934 3.60516,-3.83892 5.24243,-5.53845c5.07684,-0.58911 10.15375,-1.17816 15.53027,-1.9779z" id="svg_16"/>
  <path fill="#30444A" d="m492.47742,198.19037c-0.42893,-1.76363 -0.45435,-3.52289 -0.47528,-5.72098c1.51114,-1.08902 2.96524,-1.93401 4.53317,-2.35759c9.67566,-2.61377 17.58896,-7.68222 23.13882,-16.18387c0.51386,-0.78718 1.28858,-1.40408 1.94214,-2.10006c0.48853,0.14854 0.97711,0.29708 1.4657,0.44563c-0.56531,2.26846 -0.66565,4.79922 -1.77283,6.76199c-6.24804,11.07599 -16.55716,16.32042 -28.83172,19.15488z" id="svg_18"/>
  <path fill="#30444A" d="m551.04138,225.0887c-0.01098,0.69931 -0.02197,1.3986 -0.03491,2.44762c-4.06781,1.04045 -8.13354,1.73118 -12.84326,2.17114c-1.49048,-0.04894 -2.33704,0.15291 -3.18353,0.35472c-4.04126,0.29205 -8.08258,0.58411 -12.76423,0.64155c-1.50763,-0.00146 -2.375,0.23166 -3.2423,0.46482c-1.39362,0.25084 -2.78724,0.50168 -4.77357,0.53132c-1.12304,-0.06381 -1.6535,0.09359 -2.18389,0.25098c-1.21747,0.1908 -2.43497,0.38159 -4.43299,0.34099c-1.06747,-0.29337 -1.35434,-0.35532 -1.64123,-0.41728c-0.11356,-1.23651 -0.22708,-2.47304 -0.63077,-3.78801c2.13855,-0.43965 4.56723,-0.80086 7.54959,-1.09264c0.8786,0.07994 1.19739,0.0419 1.51001,-0.04469c3.55176,-1.53971 7.10358,-3.07939 10.90497,-4.8452c1.11218,0.61757 1.97473,1.46124 2.94604,2.67262c0.10877,0.36769 0.13416,0.43726 -0.18945,0.42589c-0.6283,0.39316 -0.93304,0.7977 -1.23779,1.20222c0.8706,0.14629 1.74115,0.29259 3.00842,0.32999c6.68884,-0.64818 12.9809,-1.18745 19.60022,-1.70926c0.76434,0.03272 1.20154,0.04796 1.63867,0.06322z" id="svg_19"/>
  <path fill="#30444A" d="m144.98758,352.96664c-0.32842,2.08194 -0.65685,4.16385 -0.98734,6.65003c-11.57653,-2.24512 -21.20336,-7.86826 -28.03323,-18.23081c1.18315,-0.63357 2.45426,-0.93273 4.36333,-1.20617c6.86799,7.62301 15.14334,11.3706 24.65724,12.78695z" id="svg_20"/>
  <path fill="#7B5330" d="m498.54794,533.81012c4.19123,10.23852 14.66166,13.42602 26.0524,7.98358c1.78076,-0.85089 3.67682,-1.46075 5.51959,-2.18201c0.36774,0.64594 0.73548,1.29187 1.10322,1.93781c-2.85767,1.78754 -5.7154,3.57513 -9.3274,5.46881c-5.49676,0.4278 -10.23923,0.74963 -14.98169,1.07147c0,0 0.07038,-0.04443 -0.13049,-0.30267c-1.1113,-0.38031 -2.02176,-0.50226 -2.93219,-0.62427c-2.31366,-3.42029 -4.62729,-6.84057 -6.89618,-10.9292c0.56073,-1.25335 1.07672,-1.83844 1.59274,-2.42352z" id="svg_21"/>
  <path fill="#7B5330" d="m543.28168,571.14832c-1.6189,2.11383 -3.25617,3.81341 -5.1637,5.73083c-0.09894,-2.58545 0.11871,-5.3869 0.23554,-8.19257c0.41845,-10.05517 -1.18384,-12.38195 -10.65259,-15.92407c2.08081,-0.83508 4.19439,-1.3009 6.6524,-1.73639c2.66761,2.70331 4.99085,5.37616 7.31403,8.04908c0.53198,3.88629 1.06396,7.77258 1.61432,12.07312z" id="svg_22"/>
  <path fill="#30444A" d="m324.43472,756.74316c1.19428,-1.56829 2.85379,-4.27655 4.49979,-4.26831c6.59558,0.03284 13.19559,0.82904 19.77127,1.54969c1.10193,0.12085 2.0917,1.26489 3.22403,2.27526c-8.95154,0.41016 -17.9938,0.48108 -27.49509,0.44336z" id="svg_23"/>
  <path fill="#30444A" d="m85.4988,748.71533c-0.24325,5.14288 3.07514,6.43604 7.33245,7.28064c-2.94378,0.2113 -6.12795,0.4585 -9.19017,-0.04132c-1.66255,-0.2713 -3.1176,-1.81396 -4.66627,-2.78314c1.2324,-1.31122 2.37871,-2.72321 3.73888,-3.88483c0.55805,-0.47668 1.57746,-0.41321 2.78511,-0.57135z" id="svg_25"/>
  <path fill="#30444A" d="m505.44672,166.18585c-0.42261,-1.92901 -0.50138,-3.92544 -0.46344,-6.6568c1.3703,-1.67909 2.62387,-2.62327 3.87744,-3.56746c1.54562,0.69919 3.09128,1.39838 5.02386,2.12409c-2.44003,2.69527 -5.26703,5.36403 -8.43786,8.10017z" id="svg_27"/>
  <path fill="#293C42" d="m498.71896,533.49603c-0.68704,0.89917 -1.20303,1.48426 -1.77749,2.3703c-0.51047,-0.54352 -1.08881,-1.34497 -1.39429,-2.23956c-2.16312,-6.33551 -1.29077,-7.55109 5.80322,-7.64923c-0.5589,2.42285 -1.50964,4.8136 -2.63144,7.51849z" id="svg_28"/>
  <path fill="#7D5633" d="m534.00891,550.99573c-2.11359,0.46588 -4.22717,0.9317 -6.64099,1.60608c-3.68488,-0.38703 -7.06952,-0.98249 -10.53863,-1.86304c1.33459,-0.66602 2.75372,-1.04706 4.17278,-1.4281c4.02216,0.27423 8.04432,0.54846 12.52149,1.03418c0.45502,0.21142 0.48535,0.65088 0.48535,0.65088z" id="svg_29"/>
  <path fill="#30444A" d="m486.52033,187.62283c-4.23539,-0.90155 -3.58182,-4.39296 -3.26346,-7.34507c0.30093,-2.7907 1.16409,-5.73066 5.54812,-5.21871c-5.04126,3.08891 -1.69723,8.02467 -2.28466,12.56378z" id="svg_30"/>
  <path fill="#30444A" d="m281.50207,756.73096c-0.57949,-1.37482 -0.79458,-2.64362 -1.06951,-4.26545c3.65954,-0.32281 7.44848,-1.98962 8.58477,3.81232c-2.37896,0.43445 -4.76492,0.49683 -7.51526,0.45313z" id="svg_31"/>
  <path fill="#30444A" d="m490.88165,219.58408c-4.67889,-2.06966 -5.13803,-4.4207 -2.23639,-12.26107c0.9231,3.75771 1.60639,7.7963 2.23639,12.26107z" id="svg_32"/>
  <path fill="#30444A" d="m506.9621,729.06311c0.01751,-0.224 0.03503,-0.44794 0.1051,-1.00464c3.0878,0.80896 6.12305,1.95068 9.40582,3.36499c-3.08478,1.33411 -6.41714,2.39575 -10.09302,3.13678c-0.03497,-2.04614 0.27359,-3.77161 0.5821,-5.49713z" id="svg_34"/>
  <path fill="#30444A" d="m267.36154,756.78424c0.6355,-1.64185 1.65439,-3.17761 2.67325,-4.71338c1.29535,1.23938 2.59073,2.47876 3.85608,4.1496c-2.06867,0.51092 -4.1073,0.59039 -6.52933,0.56378z" id="svg_35"/>
  <path fill="#CF9B4F" d="m521.09326,549.02417c-1.51025,0.66754 -2.92938,1.04858 -4.62024,1.591c-3.23938,-0.52282 -6.20706,-1.20715 -9.36685,-2.20843c4.55035,-0.6388 9.29282,-0.96063 14.44998,-1.27442c0.15259,0.54047 -0.1095,1.07282 -0.46289,1.89185z" id="svg_36"/>
  <path fill="#30444A" d="m152.30478,363.06769c3.32111,-3.01016 5.49751,-1.814 6.6857,2.57406c-2.13931,-0.53878 -4.28528,-1.44171 -6.6857,-2.57406z" id="svg_37"/>
  <path fill="#30444A" d="m483.42325,756.75073c2.23907,-3.62488 5.2388,-3.03399 8.48193,-0.48028c-2.60324,0.40405 -5.32174,0.49627 -8.48193,0.48028z" id="svg_38"/>
  <path fill="#2C3F45" d="m606.88428,149.69995c-4.6283,-2.20555 -4.66577,-2.66923 -0.32166,-5.64502c0.38263,1.7435 0.4383,3.54187 0.32166,5.64502z" id="svg_39"/>
  <path fill="#3A4D52" d="m165.39294,434.96399c2.40896,-0.34274 5.14795,-0.50238 8.20227,-0.45258c-2.41386,0.35154 -5.14303,0.49363 -8.20227,0.45258z" id="svg_40"/>
  <path fill="#30444A" d="m514.37262,756.58508c0.32989,-1.20471 1.07001,-2.28326 1.81012,-3.36181c0.93426,0.86639 1.86859,1.73272 2.82812,2.93255c-1.39257,0.40741 -2.8103,0.48145 -4.63824,0.42926z" id="svg_41"/>
  <path fill="#30444A" d="m209.39468,756.71204c1.05687,-4.56897 3.21032,-3.03431 5.53684,-0.44294c-1.64417,0.40448 -3.37953,0.47956 -5.53684,0.44294z" id="svg_42"/>
  <path fill="#30444A" d="m311.39938,756.72144c1.18833,-3.57667 3.15509,-3.71558 5.53891,-0.4209c-1.65042,0.39111 -3.38394,0.46154 -5.53891,0.4209z" id="svg_43"/>
  <path fill="#3A4D52" d="m600.4165,324.06384c-0.67022,-1.91266 -1.04083,-4.01068 -1.42663,-6.50107c4.1344,0.917 3.04596,3.58634 1.42663,6.50107z" id="svg_44"/>
  <path fill="#3A4D52" d="m140.27548,430.79022c0.39028,-0.91495 1.09239,-1.6553 1.7945,-2.39566c0.65146,0.79663 1.30293,1.59329 1.98016,2.70102c-1.13711,0.16379 -2.29997,0.01651 -3.77466,-0.30536z" id="svg_45"/>
  <path fill="#2C3F45" d="m529.10266,158.32079c1.77844,0.56013 3.74201,1.40971 5.74213,2.63471c-1.82794,-0.53146 -3.69257,-1.43836 -5.74213,-2.63471z" id="svg_46"/>
  <path fill="#30444A" d="m527.73297,734.00195c-0.49914,1.31897 -1.30261,2.54938 -2.37402,3.95252c-0.30725,-1.08338 -0.34656,-2.33966 -0.39484,-3.97107c0.81555,-0.2735 1.64008,-0.17175 2.76886,0.01855z" id="svg_47"/>
  <path fill="#30444A" d="m517.84174,153.08476c-0.61274,-0.56807 -1.02466,-1.32802 -1.43653,-2.08798c0.77094,-0.028 1.54193,-0.056 2.41803,0.20116c-0.19012,0.75509 -0.48541,1.225 -0.9815,1.88682z" id="svg_48"/>
  <path fill="#30444A" d="m495.27661,233.68027c0.133,-0.86548 0.5716,-1.61688 1.01019,-2.36829c0.55527,0.45548 1.11051,0.91092 1.72886,1.70319c-0.76908,0.48428 -1.60126,0.63173 -2.73905,0.6651z" id="svg_49"/>
  <path fill="#30444A" d="m103.71771,744.48267c-0.535,0.42114 -1.37762,0.77392 -2.42435,0.9469c0.56951,-0.45832 1.34312,-0.73682 2.42435,-0.9469z" id="svg_50"/>
  <path fill="#3A4D52" d="m535.21472,230.16707c0.61145,-0.3067 1.45801,-0.50855 2.51941,-0.51003c-0.61822,0.33855 -1.45129,0.47673 -2.51941,0.51003z" id="svg_51"/>
  <path fill="#3A4D52" d="m519.26971,231.25243c0.57074,-0.31704 1.43811,-0.55016 2.49042,-0.59618c-0.60797,0.35146 -1.40088,0.51576 -2.49042,0.59618z" id="svg_52"/>
  <path fill="#3A4D52" d="m505.62103,231.90738c0.60733,0.02914 0.8942,0.09109 1.60999,0.26222c-0.93961,0.39616 -2.30811,0.68317 -3.94214,0.85674c0.49356,-0.43764 1.25262,-0.76189 2.33215,-1.11896z" id="svg_53"/>
  <path fill="#3A4D52" d="m159.33104,433.93787c0.64464,-0.16635 1.56036,-0.17441 2.60264,0.04687c-0.69282,0.19 -1.51219,0.15073 -2.60264,-0.04687z" id="svg_54"/>
  <path fill="#C9D6D8" d="m471.41315,265.99976c0.45041,-0.87681 1.25287,-1.77411 2.33728,-2.78678c-0.47379,0.84519 -1.22952,1.80573 -2.33728,2.78678z" id="svg_55"/>
  <path fill="#30444A" d="m175.14806,377.26932c0.79258,0.14566 1.75035,0.55298 2.80049,1.28079c-0.81685,-0.1261 -1.72609,-0.5726 -2.80049,-1.28079z" id="svg_56"/>
  <path fill="#30444A" d="m488.40811,201.69035c-0.2164,-0.29547 -0.34128,-0.92611 -0.26352,-1.63685c0.25345,0.38049 0.30423,0.84108 0.26352,1.63685z" id="svg_57"/>
  <path fill="#30444A" d="m107.76806,743.5863c-0.30034,0.35114 -0.8607,0.61866 -1.57082,0.71509c0.3371,-0.38025 0.82395,-0.58948 1.57082,-0.71509z" id="svg_58"/>
  <path fill="#30444A" d="m98.77301,745.68298c-0.30217,0.32599 -0.85938,0.57209 -1.56427,0.65491c0.33797,-0.35376 0.8236,-0.54425 1.56427,-0.65491z" id="svg_59"/>
  <path fill="#30444A" d="m111.77214,742.69415c-0.29683,0.32288 -0.84984,0.57544 -1.55217,0.66803c0.33247,-0.35278 0.81422,-0.54559 1.55217,-0.66803z" id="svg_60"/>
  <path fill="#3A4D52" d="m514.43225,226.79915c-0.37457,0.23666 -0.69336,0.2747 -1.18262,0.24872c0.3053,-0.14325 0.77491,-0.27101 1.18262,-0.24872z" id="svg_61"/>
  <path fill="#3A4D52" d="m512.19592,232.05194c0.35016,-0.25848 0.88062,-0.41588 1.57709,-0.40335c-0.35492,0.28143 -0.87585,0.39293 -1.57709,0.40335z" id="svg_62"/>
  <path fill="#3A4D52" d="m136.2751,429.94141c0.38507,-0.18155 0.98425,-0.19745 1.68376,-0.02054c-0.423,0.19058 -0.94633,0.18838 -1.68376,0.02054z" id="svg_63"/>
  <path fill="#CF9B4F" d="m504.08814,547.40515c0.67367,-0.1203 1.58413,0.00165 2.68633,0.42255c-0.68869,0.13916 -1.56912,-0.02057 -2.68633,-0.42255z" id="svg_64"/>
  <path fill="#7B5330" d="m537.95337,578.25562c0.24335,-0.06482 0.51623,0.16925 0.9082,0.64819c-0.21356,0.04681 -0.54602,-0.15119 -0.9082,-0.64819z" id="svg_65"/>
  <path fill="#7B5330" d="m576.19141,687.08728c3.17907,-15.75623 7.57183,-31.13434 14.76117,-45.74396c-0.78547,5.95026 -1.37543,11.93451 -2.40186,17.84296c-1.56555,9.01135 -0.06049,17.50214 3.60046,25.73926c1.8371,4.13342 4.96125,5.36664 8.97052,3.76599c6.51923,-2.60285 13.09632,-5.06079 19.99225,-7.2608c-5.67804,4.07012 -7.82074,9.72949 -8.0935,16.26995c-0.27967,6.70832 2.81628,12.20624 6.53662,17.39435c3.56286,4.96851 7.32245,9.7959 11.93085,15.93024c-5.62549,0 -10.43519,-0.05859 -15.24305,0.01312c-8.20526,0.12238 -12.29284,4.47192 -12.1275,13.2638c-1.03552,0.45953 -2.15625,0.53344 -4.091,0.60736c-2.84998,-0.32813 -4.88611,-0.65607 -6.92218,-0.98401c-0.07587,-2.38715 -0.15174,-4.77423 -0.08515,-7.90857c4.12513,-3.68262 8.10785,-6.6181 12.2732,-9.68823c-0.20398,-0.17341 -0.98572,-0.93903 -1.86512,-1.56824c-4.58264,-3.27863 -9.26116,-6.42737 -13.7716,-9.80146c-6.28089,-4.69848 -7.69812,-7.93334 -5.35346,-14.36358c1.38245,-3.79126 0.52442,-5.93195 -2.7384,-7.72345c-1.59174,-0.8739 -3.05829,-1.97589 -4.58026,-3.28033c-0.26325,-1.03864 -0.52765,-1.77155 -0.79199,-2.5044z" id="svg_72"/>
  <path fill="#30444A" d="m444.45056,192.25339c0.83841,-1.40299 1.81879,-2.7723 3.05203,-3.85308c8.40647,-7.36726 13.30216,-16.44542 14.06009,-27.71896c0.13993,-2.08194 1.12046,-4.10738 2.5492,-6.04192c3.84872,6.27538 0.23748,12.77248 1.11459,19.5396c2.6601,-0.1201 5.25217,-0.23712 8.30411,-0.3214c1.08746,2.53882 1.71496,5.04491 2.37137,7.9347c-0.62097,0.50128 -1.28012,0.75859 -1.91925,0.71589c-13.15073,-0.87857 -21.17743,6.81345 -28.01956,16.60061c-1.22165,1.74748 -2.82236,3.22993 -4.55393,4.98733c0.68887,-2.45885 1.76642,-5.04289 2.64243,-7.69354c0.41705,-1.26198 0.45059,-2.65073 0.39892,-4.14923z" id="svg_85"/>
  <path fill="#30444A" d="m494.7514,150.82542c-4.17059,1.24598 -8.62491,2.22518 -13.64962,3.32978c0.62948,4.91565 1.27258,9.93779 2.00592,15.36198c-1.63031,0.71674 -3.35086,1.03142 -5.4339,1.42322c-0.46625,-4.71138 -0.71655,-9.50291 -0.61774,-14.28725c0.05753,-2.78465 -1.16855,-3.76289 -3.58667,-4.98205c-5.22677,-2.63523 -10.06677,-6.0376 -15.17697,-9.43874c4.63858,0.14517 9.54907,0.02077 14.08328,1.26619c3.00018,0.82405 5.27906,3.99007 8.21878,5.40602c2.44351,1.17697 5.35578,1.51743 8.10633,1.87297c1.8814,0.2432 3.84176,-0.12437 6.05059,0.04788z" id="svg_88"/>
  <path fill="#3A4D52" d="m241.98306,238.3885c4.47281,0.10894 8.93105,0.59234 13.71567,1.29361c0.31671,2.28133 0.30707,4.34478 0.31284,6.76958c-9.04483,-0.04941 -18.10509,-0.46019 -27.61673,-1.01822c2.9989,-1.25215 6.51988,-2.18321 9.86618,-3.54387c1.42413,-0.5791 2.48277,-2.05713 3.72204,-3.5011z" id="svg_90"/>
  <path fill="#30444A" d="m145.50351,350.88641c-5.80208,-2.58871 -7.75974,-7.83737 -9.98553,-13.31836c1.74615,-0.42752 3.5858,-0.4945 5.88058,-0.55087c3.41528,3.46536 6.37541,6.92005 9.50101,10.66562c-1.58016,1.23633 -3.32578,2.18179 -5.39606,3.20361z" id="svg_94"/>
  <path fill="#2C3F45" d="m372.02304,152.90637c2.07266,3.95401 -0.43634,6.71045 -3.44299,8.90749c-5.26001,3.84361 -11.06729,4.21388 -17.33011,1.48723c2.60031,-1.29106 5.57599,-2.05127 8.28467,-3.36287c4.2033,-2.03533 8.22467,-4.44628 12.48843,-7.03185z" id="svg_95"/>
  <path fill="#D4A152" d="m487.69269,737.50568c0.08783,-0.39252 0.46939,-0.69642 0.98272,-1.14563c5.92151,-2.53821 11.71119,-4.9311 17.8938,-7.31049c0.08438,1.73907 -0.22418,3.46454 -0.53393,5.5647c-3.74637,1.08447 -7.49152,1.79431 -12.03937,2.52447c-1.71753,0.24665 -2.63239,0.47296 -3.54721,0.69928c-0.82074,-0.08124 -1.64151,-0.16247 -2.75601,-0.33233z" id="svg_96"/>
  <path fill="#3A4D52" d="m437.03421,162.08528c1.86478,-3.51202 3.86963,-6.67471 6.12759,-10.01837c1.50272,-0.13856 2.75229,-0.09618 4.46973,-0.0374c-2.98383,5.65527 -6.43548,11.29414 -10.18967,17.09529c-0.29086,-2.12189 -0.27923,-4.40604 -0.40765,-7.03952z" id="svg_97"/>
  <path fill="#2C3F45" d="m345.98285,162.11398c-2.67575,5.92022 -5.75269,11.81673 -9.06506,17.93073c-0.68134,-0.24779 -1.36573,-0.6395 -1.5355,-1.18994c-1.34631,-4.36512 5.57816,-15.67255 10.60056,-16.74079z" id="svg_98"/>
  <path fill="#3A4D52" d="m192.0986,300.13779c2.56049,1.35006 5.08969,3.11227 7.8098,5.1224c-0.78988,2.00882 -1.77066,3.76969 -3.03929,5.6612c-2.49257,-1.95734 -4.69727,-4.04535 -7.07205,-6.43445c0.64337,-1.51303 1.45683,-2.72504 2.30154,-4.34915z" id="svg_99"/>
  <path fill="#2C3F45" d="m299.97733,172.07115c-3.94757,0.20287 -8.05948,0.05261 -12.57767,-0.19398c0.38937,-5.99143 4.38952,-3.80481 7.50207,-2.99709c1.7638,0.4577 3.28226,1.86069 5.0756,3.19107z" id="svg_100"/>
  <path fill="#293D43" d="m431.12781,225.13347c-0.40967,3.49553 -1.2287,6.9612 -2.22205,10.72455c-3.1665,0.07394 -4.20947,-1.75955 -3.84338,-4.46485c0.44852,-3.31407 1.55407,-6.19026 6.06543,-6.2597z" id="svg_101"/>
  <path fill="#2C3F45" d="m313.20523,195.74429c-2.61694,-6.787 -4.9809,-13.84799 -7.35602,-21.29704c1.97803,3.59238 4.28769,7.4521 5.84806,11.5941c1.10983,2.94602 1.21011,6.27237 1.50796,9.70294z" id="svg_102"/>
  <path fill="#3A4D52" d="m147.491,423.34262c0.29715,1.31012 0.27772,2.3895 0.2583,3.4689c-1.72893,-0.16345 -3.60805,0.03284 -5.13841,-0.60614c-1.1858,-0.49518 -1.93552,-2.03467 -2.7975,-4.31515c2.45367,0.40723 4.90734,0.81445 7.67761,1.45239z" id="svg_103"/>
  <path fill="#2C3F45" d="m231.93724,169.78406c-1.91165,0.09772 -3.8261,-0.18173 -5.8781,-0.11098c-1.40057,-0.6535 -2.66357,-1.65721 -3.9956,-2.96727c0.24209,-0.57591 0.55322,-0.84549 0.95993,-1.41122c2.39703,0.40306 4.75354,0.96737 6.97114,1.87211c0.81553,0.33275 1.30285,1.46994 1.94263,2.61736z" id="svg_104"/>
  <path fill="#30444A" d="m592.8645,744.16193c2.27576,0.09155 4.31189,0.41949 6.74011,0.76922c-0.04809,1.21137 -0.48834,2.401 -1.46569,5.04169c-2.27173,-2.29651 -3.89295,-3.93555 -5.27442,-5.81091z" id="svg_105"/>
  <path fill="#2C3F45" d="m315.84912,248.82834c-0.3822,-2.86617 -0.45337,-5.91097 -0.39612,-9.39519c0.32135,2.77924 0.51426,5.9979 0.39612,9.39519z" id="svg_106"/>
  <path fill="#293D43" d="m422.07483,219.98552c-0.54291,-0.32175 -0.76288,-0.6779 -1.10687,-1.3224c0.73837,-1.01238 1.56582,-1.7909 2.50579,-2.39406c0.12275,-0.07875 1.23148,1.05734 1.19672,1.10252c-0.69711,0.90636 -1.49506,1.73513 -2.59564,2.61394z" id="svg_107"/>
  <path fill="#2C3F45" d="m330.55774,161.71024c-0.76083,0.14775 -1.27567,0.13125 -2.1778,0.09219c0.4347,-1.11908 1.25672,-2.21558 2.07874,-3.31207c0.11502,1.01854 0.23001,2.03707 0.09906,3.21988z" id="svg_108"/>
  <path fill="#3A4D52" d="m271.01581,250.31503c-1.18976,0.02747 -2.40955,-0.28885 -3.86655,-0.81486c1.4292,-1.82884 2.88794,-2.20536 3.86655,0.81486z" id="svg_109"/>
  <path fill="#30444A" d="m477.17902,188.8049c-0.42994,-0.91005 -0.62625,-2.03429 -0.71814,-3.49255c0.38687,0.8701 0.66931,2.07423 0.71814,3.49255z" id="svg_110"/>
  <path fill="#2C3F45" d="m285.12701,182.11554c0.29636,0.71571 0.33478,1.55548 0.21381,2.67369c-0.26352,-0.66426 -0.36764,-1.60695 -0.21381,-2.67369z" id="svg_111"/>
  <path fill="#30444A" d="m556.63879,739.91992c0.12092,-0.74017 0.5213,-1.56518 1.20374,-2.47412c-0.12012,0.74054 -0.5221,1.56488 -1.20374,2.47412z" id="svg_112"/>
  <path fill="#30444A" d="m458.0217,141.55377c-0.40747,0.15521 -0.87357,0.06389 -1.69431,-0.06445c0.30884,-0.08537 0.97223,-0.13373 1.69431,0.06445z" id="svg_113"/>
  <path fill="#3A4D52" d="m607.44373,300.99548c-0.29859,-0.38604 -0.32544,-0.83789 -0.46643,-1.61114c0.16986,0.30084 0.45391,0.92309 0.46643,1.61114z" id="svg_114"/>
  <path fill="#3A4D52" d="m187.79263,294.70252c0.13401,0.36846 0.1041,0.55908 0.03824,1.0368c-0.47774,-0.08487 -0.91954,-0.45685 -1.36133,-0.82886c0.3864,-0.1286 0.7728,-0.2572 1.32309,-0.20794z" id="svg_115"/>
  <path fill="#30444A" d="m490.81241,737.86853c0.55111,-0.25684 1.46597,-0.48315 2.73355,-0.63684c-0.55478,0.27087 -1.46231,0.46912 -2.73355,0.63684z" id="svg_116"/>
  <path fill="#C4D2D4" d="m465.0575,697.99219c-0.17322,-0.16651 -0.37269,-0.31885 -0.57215,-0.47119c0.1236,0.10278 0.24722,0.20556 0.44318,0.42236c0.07235,0.11414 0.10272,0.06293 0.12897,0.04883z" id="svg_117"/>
  <path fill="#30444A" d="m558.41699,736.9361c-0.2381,-0.2287 -0.13476,-0.47657 0.3844,-0.63532c0.09302,0.20709 -0.05987,0.38275 -0.3844,0.63532z" id="svg_118"/>
  <path fill="#C4D2D4" d="m267.77393,200.14685c-0.02253,0.01674 0.18689,-0.09701 0.13055,-0.0473c-0.05634,0.04973 -0.10806,0.03058 -0.13055,0.0473z" id="svg_119"/>
  <path fill="#C4D2D4" d="m120.16514,336.66034c-0.18535,0.15454 -0.37869,0.33838 -0.57205,0.52222c0.0421,-0.17151 0.08419,-0.34305 0.33588,-0.4748c0.20958,0.03977 0.22816,-0.01809 0.23617,-0.04742z" id="svg_120"/>
  <path fill="#D59C4A" d="m560,594.03699c0.0404,-2.11957 -0.26343,-3.89344 0.22931,-5.40815c0.39899,-1.22662 1.65777,-2.93377 2.70459,-3.06378c6.01275,-0.74676 12.07336,-1.12335 18.12292,-1.55365c5.08802,-0.362 8.54627,2.07862 10.71265,6.53437c2.20215,4.52929 4.3053,9.10785 6.57849,13.6007c0.49097,0.97028 1.39667,2.17219 2.32721,2.40509c5.10346,1.27747 3.39471,4.18201 1.45905,6.59919c-4.35944,5.44378 -9.20746,9.54449 -17.19385,9.03015c-8.23767,-0.53052 -15.74402,2.56897 -22.76874,9.41882c0.21491,-2.5133 0.34717,-3.69586 0.40924,-4.8822c0.06818,-1.30444 0.62085,-3.35413 0.0166,-3.80139c-4.93762,-3.65473 -2.11328,-7.94873 -1.7619,-12.33179c0.42536,-5.30682 -0.49664,-10.72162 -0.83557,-16.54736z" id="svg_121"/>
  <path fill="#CF9B4F" d="m549.56592,578.15161c3.38312,-1.23077 6.52789,-2.22815 10.0553,-3.21057c0.65722,3.22565 0.13934,6.04462 -3.30573,7.38995c-4.04059,1.57776 -5.34936,4.98493 -5.22577,8.81849c0.13971,4.33325 -1.45758,6.48577 -5.84521,6.96862c-1.21021,0.13312 -2.9267,1.55085 -3.2536,2.70648c-0.9303,3.28827 -1.26374,6.74537 -1.56379,10.14509c-3.48449,2.06536 -5.48059,0.8858 -5.33001,-3.32325c0.08697,-2.43121 -0.12226,-5.7583 1.29736,-7.10028c5.52972,-5.22741 7.01453,-12.38104 10.15509,-18.74231c0.63391,-1.28387 1.83728,-2.2865 3.01636,-3.65222z" id="svg_122"/>
  <path fill="#7D5633" d="m576.9834,689.59168c-1.72754,9.92077 -3.39899,19.54644 -5.23206,29.14117c-0.31982,1.67389 -1.32068,3.21771 -2.29974,5.00952c1.88422,-11.91705 4.06128,-24.02203 6.48907,-36.39105c0.51508,0.46881 0.77948,1.20172 1.04273,2.24036z" id="svg_123"/>
  <path fill="#CF9B4F" d="m544.32324,619.9397c-0.12048,-2.0188 0.11866,-4.09967 0.43402,-6.49744c0.9679,0.08722 1.8595,0.49127 2.7511,0.89532c-0.94183,1.84668 -1.88367,3.69336 -3.18512,5.60212z" id="svg_124"/>
  <path fill="#CF9B4F" d="m544.9173,612.77625c-0.16529,0.10583 -0.33539,-0.08643 -0.43701,-0.30988c-0.03559,-0.07831 0.09722,-0.23316 0.30218,-0.48798c0.15161,0.07257 0.1543,0.27997 0.13483,0.79786z" id="svg_125"/>
  <path fill="#3A4D52" d="m549.40271,225.02548c-0.32721,-0.01747 -0.36487,-0.5039 -0.45435,-0.73082c0.69263,-0.04413 1.47486,0.13867 2.17505,0.55776c-0.51916,0.22102 -0.95636,0.20578 -1.7207,0.17306z" id="svg_127"/>
  <path fill="#7B5330" d="m576.81696,527.58301c-2.41333,9.42804 -7.69928,16.76617 -13.40833,24.00891c-3.55884,4.51483 -7.18548,5.99261 -12.66351,3.34448c-7.70087,-8.60431 -4.03608,-18.76794 -4.36225,-28.26233c-0.15747,-4.58423 0.86261,-9.23761 1.6482,-13.80841c0.24023,-1.39752 1.47357,-2.62439 2.25213,-3.92938c0.40351,0.26352 0.80695,0.52704 1.21039,0.79056c-0.46808,7.21798 -1.12848,14.43112 -1.31024,21.65634c-0.0733,2.91315 0.46326,6.01825 1.49377,8.74438c1.89545,5.01471 5.47046,5.3667 8.67304,1.08051c2.4823,-3.32221 4.7428,-6.80927 7.17309,-10.17151c2.32081,-3.21069 4.73365,-6.3548 7.96259,-10.67401c0.57049,2.97485 0.94049,4.90405 1.33112,7.22046z" id="svg_128"/>
  <path fill="#CF9B4F" d="m534.35333,551.02612c-0.34442,-0.03039 -0.37475,-0.46985 -0.388,-0.68902c0.29309,-0.77289 0.74402,-1.84088 0.88355,-1.80164c1.56115,0.43915 4.28631,0.88385 4.38964,1.64166c0.43696,3.20496 6.35419,4.42353 2.78638,8.82349c-2.68072,-2.59833 -5.00396,-5.27118 -7.67157,-7.97449z" id="svg_129"/>
  <path fill="#293C42" d="m525.74085,516.65973c3.72473,-2.48431 4.24548,0.27533 5.552,3.32422c-2.02967,0.26892 -3.65253,0.68738 -5.21118,0.51721c-0.30866,-0.03363 -0.37061,-2.32819 -0.34082,-3.84143z" id="svg_130"/>
  <path fill="#3A4D52" d="m528.03186,225.20253c0.57562,0.42328 0.8277,0.83517 1.22681,1.44409c-0.72345,0.05072 -1.594,-0.09558 -2.4646,-0.24187c0.30475,-0.40452 0.60949,-0.80906 1.23779,-1.20222z" id="svg_131"/>
 </g>

</svg>