<svg width="23.999999999999996" height="23.999999999999996" xmlns="http://www.w3.org/2000/svg" fill="none">

 <g>
  <title>Layer 1</title>
  <g stroke-width="0" id="SVGRepo_bgCarrier"/>
  <g stroke-linejoin="round" stroke-linecap="round" id="SVGRepo_tracerCarrier"/>
  <g stroke="null" id="SVGRepo_iconCarrier">
   <path stroke="#2d5c4f" id="svg_1" stroke-linejoin="round" stroke-linecap="round" stroke-width="2.4" d="m2.94737,19.80409l0,-14.39064c0,-1.25929 0,-1.88895 0.24667,-2.36994c0.21697,-0.4231 0.56319,-0.76708 0.98903,-0.98264c0.48411,-0.24508 1.11786,-0.24508 2.38535,-0.24508l10.86316,0c1.26748,0 1.90128,0 2.38537,0.24508c0.42581,0.21557 0.77208,0.55955 0.989,0.98264c0.24668,0.48098 0.24668,1.11064 0.24668,2.36994l0,12.14211l-15.84211,0c-1.24991,0 -2.26316,1.00667 -2.26316,2.24854zm0,0c0,1.24187 1.01325,2.24854 2.26316,2.24854l15.84211,0m-12.44737,-15.73977l6.78947,0m-6.78947,4.49708l6.78947,0m4.52632,6.74561l0,4.49708"/>
  </g>
 </g>
</svg>